<?xml version="1.0" encoding="UTF-8"?>
<svg xmlns="http://www.w3.org/2000/svg" xmlns:xlink="http://www.w3.org/1999/xlink" width="57.693pt" height="57.693pt" viewBox="0 0 57.693 57.693" version="1.1">
<g id="surface1">
<path style="fill:none;stroke-width:1.0959;stroke-linecap:butt;stroke-linejoin:miter;stroke:rgb(100%,100%,100%);stroke-opacity:1;stroke-miterlimit:10;" d="M -77.952406 -0.00065625 C -77.952406 3.913406 -81.128187 7.085281 -85.04225 7.085281 C -88.956312 7.085281 -92.128187 3.913406 -92.128187 -0.00065625 C -92.128187 -3.914719 -88.956312 -7.086594 -85.04225 -7.086594 C -81.128187 -7.086594 -77.952406 -3.914719 -77.952406 -0.00065625 Z M -77.952406 -0.00065625 " transform="matrix(1,0,0,-1,113.886,28.847)"/>
<path style="fill:none;stroke-width:1.0959;stroke-linecap:butt;stroke-linejoin:miter;stroke:rgb(100%,100%,100%);stroke-opacity:1;stroke-miterlimit:10;" d="M -88.272719 3.233719 L -81.807875 -3.235031 " transform="matrix(1,0,0,-1,113.886,28.847)"/>
<path style="fill:none;stroke-width:1.0959;stroke-linecap:round;stroke-linejoin:miter;stroke:rgb(100%,100%,100%);stroke-opacity:1;stroke-miterlimit:10;" d="M -0.00109072 -0.00103239 L 0.54858 0.00172978 " transform="matrix(-0.7071,-0.7071,-0.7071,0.7071,25.61178,25.61324)"/>
<path style="fill:none;stroke-width:1.0959;stroke-linecap:round;stroke-linejoin:miter;stroke:rgb(100%,100%,100%);stroke-opacity:1;stroke-miterlimit:10;" d="M 0.0000609885 -0.00173685 L 0.546969 -0.00173685 " transform="matrix(0.7071,0.7071,0.7071,-0.7071,32.07931,32.08076)"/>
<path style="fill:none;stroke-width:1.0959;stroke-linecap:butt;stroke-linejoin:miter;stroke:rgb(100%,100%,100%);stroke-opacity:1;stroke-miterlimit:10;" d="M -86.315687 4.616531 L -80.425062 -1.278 " transform="matrix(1,0,0,-1,113.886,28.847)"/>
<path style="fill:none;stroke-width:1.0959;stroke-linecap:round;stroke-linejoin:miter;stroke:rgb(100%,100%,100%);stroke-opacity:1;stroke-miterlimit:10;" d="M -0.00154239 -0.000879472 L 0.548128 0.00188269 " transform="matrix(-0.7071,-0.7071,-0.7071,0.7071,27.5686,24.23)"/>
<path style="fill:none;stroke-width:1.0959;stroke-linecap:round;stroke-linejoin:miter;stroke:rgb(100%,100%,100%);stroke-opacity:1;stroke-miterlimit:10;" d="M -0.000397751 -0.00188269 L 0.549273 0.000879472 " transform="matrix(0.7071,0.7071,0.7071,-0.7071,33.46255,30.12395)"/>
<path style="fill:none;stroke-width:1.0959;stroke-linecap:butt;stroke-linejoin:miter;stroke:rgb(100%,100%,100%);stroke-opacity:1;stroke-miterlimit:10;" d="M -89.655531 1.276688 L -83.764906 -4.617844 " transform="matrix(1,0,0,-1,113.886,28.847)"/>
<path style="fill:none;stroke-width:1.0959;stroke-linecap:round;stroke-linejoin:miter;stroke:rgb(100%,100%,100%);stroke-opacity:1;stroke-miterlimit:10;" d="M -0.00154946 -0.00117823 L 0.548121 0.00158393 " transform="matrix(-0.7071,-0.7071,-0.7071,0.7071,24.22854,27.57005)"/>
<path style="fill:none;stroke-width:1.0959;stroke-linecap:round;stroke-linejoin:miter;stroke:rgb(100%,100%,100%);stroke-opacity:1;stroke-miterlimit:10;" d="M -0.000397751 -0.00159101 L 0.549273 0.00117116 " transform="matrix(0.7071,0.7071,0.7071,-0.7071,30.1225,33.464)"/>
<path style="fill:none;stroke-width:1.0959;stroke-linecap:butt;stroke-linejoin:miter;stroke:rgb(100%,100%,100%);stroke-opacity:1;stroke-miterlimit:10;" d="M -83.659437 5.300125 L -79.741469 1.382156 " transform="matrix(1,0,0,-1,113.886,28.847)"/>
<path style="fill:none;stroke-width:1.0959;stroke-linecap:round;stroke-linejoin:miter;stroke:rgb(100%,100%,100%);stroke-opacity:1;stroke-miterlimit:10;" d="M 0.00253323 -0.000118442 L 0.549441 -0.000118442 " transform="matrix(-0.7071,-0.7071,-0.7071,0.7071,30.22827,23.54875)"/>
<path style="fill:none;stroke-width:1.0959;stroke-linecap:round;stroke-linejoin:miter;stroke:rgb(100%,100%,100%);stroke-opacity:1;stroke-miterlimit:10;" d="M 0.000915712 0.000118442 L 0.547824 0.000118442 " transform="matrix(0.7071,0.7071,0.7071,-0.7071,34.1438,27.46428)"/>
<path style="fill:none;stroke-width:1.0959;stroke-linecap:butt;stroke-linejoin:miter;stroke:rgb(100%,100%,100%);stroke-opacity:1;stroke-miterlimit:10;" d="M -90.339125 -1.383469 L -86.425062 -5.297531 " transform="matrix(1,0,0,-1,113.886,28.847)"/>
<path style="fill:none;stroke-width:1.0959;stroke-linecap:round;stroke-linejoin:miter;stroke:rgb(100%,100%,100%);stroke-opacity:1;stroke-miterlimit:10;" d="M -0.000228928 0.000829975 L 0.546679 0.000829975 " transform="matrix(-0.7071,-0.7071,-0.7071,0.7071,23.5473,30.22972)"/>
<path style="fill:none;stroke-width:1.0959;stroke-linecap:round;stroke-linejoin:miter;stroke:rgb(100%,100%,100%);stroke-opacity:1;stroke-miterlimit:10;" d="M -0.00184645 -0.000829975 L 0.547824 0.00193219 " transform="matrix(0.7071,0.7071,0.7071,-0.7071,27.46283,34.14525)"/>
</g>
</svg>
