<?xml version="1.0" encoding="UTF-8" standalone="no"?>
<svg
   xmlns:dc="http://purl.org/dc/elements/1.1/"
   xmlns:cc="http://creativecommons.org/ns#"
   xmlns:rdf="http://www.w3.org/1999/02/22-rdf-syntax-ns#"
   xmlns:svg="http://www.w3.org/2000/svg"
   xmlns="http://www.w3.org/2000/svg"
   xmlns:sodipodi="http://sodipodi.sourceforge.net/DTD/sodipodi-0.dtd"
   xmlns:inkscape="http://www.inkscape.org/namespaces/inkscape"
   version="1.1"
   id="svg2"
   xml:space="preserve"
   width="263.03467"
   height="289.92001"
   viewBox="0 0 263.03467 289.92001"
   sodipodi:docname="random.svg"
   inkscape:version="1.0.1 (3bc2e813f5, 2020-09-07)"><metadata
     id="metadata8"><rdf:RDF><cc:Work
         rdf:about=""><dc:format>image/svg+xml</dc:format><dc:type
           rdf:resource="http://purl.org/dc/dcmitype/StillImage" /><dc:title></dc:title></cc:Work></rdf:RDF></metadata><defs
     id="defs6"><clipPath
       clipPathUnits="userSpaceOnUse"
       id="clipPath18"><path
         d="M 0,0 H 197.27853 V 217.4431 H 0 Z"
         id="path16" /></clipPath></defs><sodipodi:namedview
     pagecolor="#ffffff"
     bordercolor="#666666"
     borderopacity="1"
     objecttolerance="10"
     gridtolerance="10"
     guidetolerance="10"
     inkscape:pageopacity="0"
     inkscape:pageshadow="2"
     inkscape:window-width="1920"
     inkscape:window-height="1001"
     id="namedview4"
     showgrid="false"
     inkscape:zoom="2.8628586"
     inkscape:cx="131.51733"
     inkscape:cy="144.96001"
     inkscape:window-x="-9"
     inkscape:window-y="-9"
     inkscape:window-maximized="1"
     inkscape:current-layer="g10" /><g
     id="g10"
     inkscape:groupmode="layer"
     inkscape:label="random"
     transform="matrix(1.3333333,0,0,-1.3333333,0,289.92)"><g
       id="g12"><g
         id="g14"
         clip-path="url(#clipPath18)"><g
           id="g20" /><g
           id="g22"><path
             d="m 8.96713,6.76546 c 0.8273,0 1.6205,0.32849 2.20499,0.91407 0.58448,0.58447 0.91299,1.37769 0.91299,2.20387 0,0.8273 -0.32851,1.62052 -0.91299,2.205 -0.58449,0.58448 -1.37769,0.91297 -2.20499,0.91297 -0.82727,0 -1.6205,-0.32849 -2.20498,-0.91297 C 6.17769,11.50392 5.84918,10.7107 5.84918,9.8834 5.84918,9.05722 6.17769,8.264 6.76215,7.67953 7.34663,7.09395 8.13986,6.76546 8.96713,6.76546 Z"
             style="fill:#252525;fill-opacity:0.25;fill-rule:nonzero;stroke:none"
             id="path24" /></g><g
           id="g26"><path
             d="m 8.96713,26.98056 c 0.45815,0 0.8987,0.18237 1.22281,0.50649 0.32408,0.32408 0.50647,0.76465 0.50647,1.22277 0,0.45815 -0.18239,0.8987 -0.50647,1.22281 -0.32411,0.32408 -0.76466,0.50647 -1.22281,0.50647 -0.45811,0 -0.89869,-0.18239 -1.22278,-0.50647 -0.32411,-0.32411 -0.50648,-0.76466 -0.50648,-1.22281 0,-0.45812 0.18237,-0.89869 0.50648,-1.22277 0.32409,-0.32412 0.76467,-0.50649 1.22278,-0.50649 z"
             style="fill:#191919;fill-opacity:0.25;fill-rule:nonzero;stroke:none"
             id="path28" /></g><g
           id="g30"><path
             d="m 8.96713,44.28426 c 0.86244,0 1.68975,0.34277 2.29947,0.95251 0.60976,0.60976 0.95253,1.43704 0.95253,2.29947 0,0.86244 -0.34277,1.68971 -0.95253,2.29947 -0.60972,0.60976 -1.43703,0.95253 -2.29947,0.95253 -0.86243,0 -1.68971,-0.34277 -2.29945,-0.95253 -0.60976,-0.60976 -0.95253,-1.43703 -0.95253,-2.29947 0,-0.86243 0.34277,-1.68971 0.95253,-2.29947 0.60974,-0.60974 1.43702,-0.95251 2.29945,-0.95251 z"
             style="fill:#8f8f8f;fill-opacity:0.25;fill-rule:nonzero;stroke:none"
             id="path32" /></g><g
           id="g34"><path
             d="m 8.96713,62.78766 c 0.94814,0 1.85674,0.37684 2.528,1.04701 0.67017,0.67017 1.04592,1.57987 1.04592,2.52799 0,0.94813 -0.37575,1.85672 -1.04592,2.5269 -0.67126,0.67016 -1.57986,1.04699 -2.528,1.04699 -0.94812,0 -1.8567,-0.37683 -2.52688,-1.04699 -0.67127,-0.67018 -1.047,-1.57877 -1.047,-2.5269 0,-0.94812 0.37573,-1.85782 1.047,-2.52799 0.67018,-0.67017 1.57876,-1.04701 2.52688,-1.04701 z"
             style="fill:#b5b5b5;fill-opacity:0.25;fill-rule:nonzero;stroke:none"
             id="path36" /></g><g
           id="g38"><path
             d="m 8.96713,81.52948 c 0.97013,0 1.90178,0.38564 2.58733,1.07118 0.68666,0.68665 1.07228,1.61722 1.07228,2.58841 0,0.97011 -0.38562,1.90065 -1.07228,2.58731 -0.68555,0.68666 -1.6172,1.07228 -2.58733,1.07228 -0.97009,0 -1.90175,-0.38562 -2.58731,-1.07228 -0.68664,-0.68666 -1.07226,-1.6172 -1.07226,-2.58731 0,-0.97119 0.38562,-1.90176 1.07226,-2.58841 0.68556,-0.68554 1.61722,-1.07118 2.58731,-1.07118 z"
             style="fill:#f3f3f3;fill-opacity:0.25;fill-rule:nonzero;stroke:none"
             id="path40" /></g><g
           id="g42"><path
             d="m 8.96713,101.45674 c 0.67897,0 1.32938,0.26916 1.80948,0.74927 0.47902,0.47902 0.74929,1.13051 0.74929,1.80838 0,0.67897 -0.27027,1.32936 -0.74929,1.80946 -0.4801,0.48011 -1.13051,0.74929 -1.80948,0.74929 -0.67895,0 -1.32934,-0.26918 -1.80946,-0.74929 -0.479,-0.4801 -0.74928,-1.13049 -0.74928,-1.80946 0,-0.67787 0.27028,-1.32936 0.74928,-1.80838 0.48012,-0.48011 1.13051,-0.74927 1.80946,-0.74927 z"
             style="fill:#bfbfbf;fill-opacity:0.25;fill-rule:nonzero;stroke:none"
             id="path44" /></g><g
           id="g46"><path
             d="m 8.96713,119.79756 c 0.80753,0 1.58097,0.32079 2.15225,0.89099 0.57021,0.57131 0.89101,1.34585 0.89101,2.15224 0,0.80753 -0.3208,1.58096 -0.89101,2.15225 -0.57128,0.57022 -1.34472,0.89101 -2.15225,0.89101 -0.80749,0 -1.58093,-0.32079 -2.15225,-0.89101 -0.57019,-0.57129 -0.89099,-1.34472 -0.89099,-2.15225 0,-0.80639 0.3208,-1.58093 0.89099,-2.15224 0.57132,-0.5702 1.34476,-0.89099 2.15225,-0.89099 z"
             style="fill:#5f5f5f;fill-opacity:0.25;fill-rule:nonzero;stroke:none"
             id="path48" /></g><g
           id="g50"><path
             d="m 8.96713,138.13615 c 0.93605,0 1.83475,0.37245 2.49614,1.03495 0.66248,0.66137 1.03493,1.56007 1.03493,2.49612 0,0.93604 -0.37245,1.83473 -1.03493,2.49613 -0.66139,0.66247 -1.56009,1.03492 -2.49614,1.03492 -0.93603,0 -1.83473,-0.37245 -2.49611,-1.03492 -0.66249,-0.6614 -1.03494,-1.56009 -1.03494,-2.49613 0,-0.93605 0.37245,-1.83475 1.03494,-2.49612 0.66138,-0.6625 1.56008,-1.03495 2.49611,-1.03495 z"
             style="fill:#c2c2c2;fill-opacity:0.25;fill-rule:nonzero;stroke:none"
             id="path52" /></g><g
           id="g54"><path
             d="m 8.96713,157.1889 c 0.87674,0 1.7172,0.34827 2.33684,0.96791 0.61963,0.61963 0.9679,1.46009 0.9679,2.33683 0,0.87671 -0.34827,1.71718 -0.9679,2.3368 -0.61964,0.61965 -1.4601,0.96792 -2.33684,0.96792 -0.87671,0 -1.71718,-0.34827 -2.3368,-0.96792 -0.61965,-0.61962 -0.96792,-1.46009 -0.96792,-2.3368 0,-0.87674 0.34827,-1.7172 0.96792,-2.33683 0.61962,-0.61964 1.46009,-0.96791 2.3368,-0.96791 z"
             style="fill:#121212;fill-opacity:0.25;fill-rule:nonzero;stroke:none"
             id="path56" /></g><g
           id="g58"><path
             d="m 8.96713,175.7121 c 0.95693,0 1.8743,0.38011 2.55107,1.0569 0.67678,0.67566 1.0569,1.59411 1.0569,2.55105 0,0.95693 -0.38012,1.87429 -1.0569,2.55106 -0.67677,0.67676 -1.59414,1.05689 -2.55107,1.05689 -0.95691,0 -1.87428,-0.38013 -2.55105,-1.05689 -0.67676,-0.67677 -1.05689,-1.59413 -1.05689,-2.55106 0,-0.95694 0.38013,-1.87539 1.05689,-2.55105 0.67677,-0.67679 1.59414,-1.0569 2.55105,-1.0569 z"
             style="fill:#9f9f9f;fill-opacity:0.25;fill-rule:nonzero;stroke:none"
             id="path60" /></g><g
           id="g62"><path
             d="m 8.96713,197.32797 c 0.21643,0 0.42519,0.0857 0.5779,0.2395 0.15381,0.15381 0.2406,0.36145 0.2406,0.57789 0,0.21754 -0.08679,0.42518 -0.2406,0.57899 -0.15271,0.15381 -0.36147,0.2395 -0.5779,0.2395 -0.21643,0 -0.42517,-0.0857 -0.57788,-0.2395 -0.15381,-0.15381 -0.2395,-0.36145 -0.2395,-0.57899 0,-0.21644 0.08569,-0.42408 0.2395,-0.57789 0.15271,-0.1538 0.36145,-0.2395 0.57788,-0.2395 z"
             style="fill:#b8b8b8;fill-opacity:0.25;fill-rule:nonzero;stroke:none"
             id="path64" /></g><g
           id="g66"><path
             d="m 41.57498,8.15634 c 0.45813,0 0.89758,0.18237 1.2217,0.50537 0.32411,0.32411 0.50648,0.76357 0.50648,1.22169 0,0.45815 -0.18237,0.8976 -0.50648,1.22172 -0.32412,0.32408 -0.76357,0.50647 -1.2217,0.50647 -0.45814,0 -0.8976,-0.18239 -1.22169,-0.50647 C 40.02919,10.781 39.8479,10.34155 39.8479,9.8834 c 0,-0.45812 0.18129,-0.89758 0.50539,-1.22169 0.32409,-0.323 0.76355,-0.50537 1.22169,-0.50537 z"
             style="fill:#0a0a0a;fill-opacity:0.25;fill-rule:nonzero;stroke:none"
             id="path68" /></g><g
           id="g70"><path
             d="m 41.57498,27.94077 c 0.20435,0 0.3999,0.08131 0.54382,0.22522 0.14394,0.14393 0.22524,0.33949 0.22524,0.54383 0,0.20435 -0.0813,0.39991 -0.22524,0.54384 -0.14392,0.14392 -0.33947,0.22522 -0.54382,0.22522 -0.20325,0 -0.3988,-0.0813 -0.54384,-0.22522 -0.1439,-0.14393 -0.2252,-0.33949 -0.2252,-0.54384 0,-0.20434 0.0813,-0.3999 0.2252,-0.54383 0.14504,-0.14391 0.34059,-0.22522 0.54384,-0.22522 z"
             style="fill:#656565;fill-opacity:0.25;fill-rule:nonzero;stroke:none"
             id="path72" /></g><g
           id="g74"><path
             d="m 41.57498,44.54903 c 0.79213,0 1.55239,0.3153 2.1116,0.87561 0.56031,0.55922 0.87563,1.31947 0.87563,2.1116 0,0.79213 -0.31532,1.55128 -0.87563,2.1116 -0.55921,0.56032 -1.31947,0.87563 -2.1116,0.87563 -0.79213,0 -1.55128,-0.31531 -2.1116,-0.87563 -0.5603,-0.56032 -0.87451,-1.31947 -0.87451,-2.1116 0,-0.79213 0.31421,-1.55238 0.87451,-2.1116 0.56032,-0.56031 1.31947,-0.87561 2.1116,-0.87561 z"
             style="fill:#292929;fill-opacity:0.25;fill-rule:nonzero;stroke:none"
             id="path76" /></g><g
           id="g78"><path
             d="m 41.57498,64.34663 c 0.53504,0 1.04702,0.21204 1.42494,0.58998 0.37903,0.37793 0.59108,0.89101 0.59108,1.42605 0,0.53394 -0.21205,1.04701 -0.59108,1.42495 -0.37792,0.37793 -0.8899,0.58997 -1.42494,0.58997 -0.53393,0 -1.047,-0.21204 -1.42494,-0.58997 -0.37793,-0.37794 -0.59108,-0.89101 -0.59108,-1.42495 0,-0.53504 0.21315,-1.04812 0.59108,-1.42605 0.37794,-0.37794 0.89101,-0.58998 1.42494,-0.58998 z"
             style="fill:#464646;fill-opacity:0.25;fill-rule:nonzero;stroke:none"
             id="path80" /></g><g
           id="g82"><path
             d="m 41.57498,82.38643 c 0.74268,0 1.45572,0.29553 1.98087,0.82067 0.52624,0.52627 0.82068,1.2382 0.82068,1.98197 0,0.74269 -0.29444,1.45571 -0.82068,1.98087 -0.52515,0.52514 -1.23819,0.82069 -1.98087,0.82069 -0.74269,0 -1.4557,-0.29555 -1.98086,-0.82069 -0.52515,-0.52516 -0.8207,-1.23818 -0.8207,-1.98087 0,-0.74377 0.29555,-1.4557 0.8207,-1.98197 0.52516,-0.52514 1.23817,-0.82067 1.98086,-0.82067 z"
             style="fill:#393939;fill-opacity:0.25;fill-rule:nonzero;stroke:none"
             id="path84" /></g><g
           id="g86"><path
             d="m 41.57498,102.23679 c 0.47133,0 0.92397,0.18785 1.25685,0.52075 0.334,0.33398 0.52077,0.78554 0.52077,1.25685 0,0.47241 -0.18677,0.92396 -0.52077,1.25795 -0.33288,0.3329 -0.78552,0.52076 -1.25685,0.52076 -0.47131,0 -0.92395,-0.18786 -1.25685,-0.52076 -0.33289,-0.33399 -0.52075,-0.78554 -0.52075,-1.25795 0,-0.47131 0.18786,-0.92287 0.52075,-1.25685 0.3329,-0.3329 0.78554,-0.52075 1.25685,-0.52075 z"
             style="fill:#4d4d4d;fill-opacity:0.25;fill-rule:nonzero;stroke:none"
             id="path88" /></g><g
           id="g90"><path
             d="m 41.57498,120.69624 c 0.56911,0 1.11403,0.22632 1.51613,0.62844 0.4021,0.4021 0.62843,0.94812 0.62843,1.51611 0,0.56911 -0.22633,1.11403 -0.62843,1.51614 -0.4021,0.40212 -0.94702,0.62844 -1.51613,0.62844 -0.56801,0 -1.11403,-0.22632 -1.51613,-0.62844 -0.40211,-0.40211 -0.62841,-0.94703 -0.62841,-1.51614 0,-0.56799 0.2263,-1.11401 0.62841,-1.51611 0.4021,-0.40212 0.94812,-0.62844 1.51613,-0.62844 z"
             style="fill:#222222;fill-opacity:0.25;fill-rule:nonzero;stroke:none"
             id="path92" /></g><g
           id="g94"><path
             d="m 41.57498,141.30136 c 0.0967,0 0.19008,0.0385 0.25929,0.10768 0.0681,0.0681 0.10657,0.16149 0.10657,0.25818 0,0.0967 -0.03847,0.19006 -0.10657,0.25818 -0.06921,0.0692 -0.16259,0.10767 -0.25929,0.10767 -0.09668,0 -0.19006,-0.0385 -0.25818,-0.10767 -0.06923,-0.0681 -0.10766,-0.1615 -0.10766,-0.25818 0,-0.0967 0.03843,-0.19008 0.10766,-0.25818 0.06812,-0.0692 0.1615,-0.10768 0.25818,-0.10768 z"
             style="fill:#b1b1b1;fill-opacity:0.25;fill-rule:nonzero;stroke:none"
             id="path96" /></g><g
           id="g98"><path
             d="m 41.57498,158.15352 c 0.62073,0 1.2162,0.24719 1.65456,0.68555 0.43837,0.43837 0.68556,1.03383 0.68556,1.65457 0,0.62072 -0.24719,1.2151 -0.68556,1.65456 -0.43836,0.43835 -1.03383,0.68446 -1.65456,0.68446 -0.62074,0 -1.2151,-0.24611 -1.65455,-0.68446 -0.43837,-0.43946 -0.68447,-1.03384 -0.68447,-1.65456 0,-0.62074 0.2461,-1.2162 0.68447,-1.65457 0.43945,-0.43836 1.03381,-0.68555 1.65455,-0.68555 z"
             style="fill:#0d0d0d;fill-opacity:0.25;fill-rule:nonzero;stroke:none"
             id="path100" /></g><g
           id="g102"><path
             d="m 41.57498,175.3748 c 1.04592,0 2.05008,0.41638 2.78946,1.15578 0.7394,0.73939 1.15578,1.74245 1.15578,2.78947 0,1.04592 -0.41638,2.04897 -1.15578,2.78836 -0.73938,0.74049 -1.74354,1.15578 -2.78946,1.15578 -1.04591,0 -2.04898,-0.41529 -2.78948,-1.15578 -0.73936,-0.73939 -1.15466,-1.74244 -1.15466,-2.78836 0,-1.04702 0.4153,-2.05008 1.15466,-2.78947 0.7405,-0.7394 1.74357,-1.15578 2.78948,-1.15578 z"
             style="fill:#949494;fill-opacity:0.25;fill-rule:nonzero;stroke:none"
             id="path104" /></g><g
           id="g106"><path
             d="m 41.57498,196.18976 c 0.51856,0 1.01625,0.20656 1.38321,0.5735 0.36694,0.36584 0.57349,0.86354 0.57349,1.3821 0,0.51966 -0.20655,1.01734 -0.57349,1.3832 -0.36696,0.36695 -0.86465,0.57349 -1.38321,0.57349 -0.51857,0 -1.01625,-0.20654 -1.38319,-0.57349 -0.36695,-0.36586 -0.57241,-0.86354 -0.57241,-1.3832 0,-0.51856 0.20546,-1.01626 0.57241,-1.3821 0.36694,-0.36694 0.86462,-0.5735 1.38319,-0.5735 z"
             style="fill:#2e2e2e;fill-opacity:0.25;fill-rule:nonzero;stroke:none"
             id="path108" /></g><g
           id="g110"><path
             d="m 74.18282,8.33652 c 0.4109,0 0.80421,0.16259 1.09425,0.45265 0.29115,0.29004 0.45375,0.68445 0.45375,1.09423 0,0.4109 -0.1626,0.80422 -0.45375,1.09426 -0.29004,0.29115 -0.68335,0.45375 -1.09425,0.45375 -0.40978,0 -0.8042,-0.1626 -1.09424,-0.45375 -0.29006,-0.29004 -0.45265,-0.68336 -0.45265,-1.09426 0,-0.40978 0.16259,-0.80419 0.45265,-1.09423 0.29004,-0.29006 0.68446,-0.45265 1.09424,-0.45265 z"
             style="fill:#818181;fill-opacity:0.25;fill-rule:nonzero;stroke:none"
             id="path112" /></g><g
           id="g114"><path
             d="m 74.18282,26.06209 c 0.70204,0 1.3755,0.27905 1.87211,0.77565 0.49658,0.49658 0.77564,1.17006 0.77564,1.87208 0,0.70205 -0.27906,1.37551 -0.77564,1.8721 -0.49661,0.49658 -1.17007,0.77565 -1.87211,0.77565 -0.70203,0 -1.37551,-0.27907 -1.87209,-0.77565 -0.4966,-0.49659 -0.77563,-1.17005 -0.77563,-1.8721 0,-0.70202 0.27903,-1.3755 0.77563,-1.87208 0.49658,-0.4966 1.17006,-0.77565 1.87209,-0.77565 z"
             style="fill:#484848;fill-opacity:0.25;fill-rule:nonzero;stroke:none"
             id="path116" /></g><g
           id="g118"><path
             d="m 74.18282,47.02975 c 0.13403,0 0.26368,0.05385 0.35817,0.14834 0.09558,0.09448 0.14831,0.22411 0.14831,0.35815 0,0.13403 -0.05273,0.26257 -0.14831,0.35817 -0.09449,0.09447 -0.22414,0.1483 -0.35817,0.1483 -0.13402,0 -0.26256,-0.05383 -0.35816,-0.1483 -0.09448,-0.0956 -0.14831,-0.22414 -0.14831,-0.35817 0,-0.13404 0.05383,-0.26367 0.14831,-0.35815 0.0956,-0.09449 0.22414,-0.14834 0.35816,-0.14834 z"
             style="fill:#5e5e5e;fill-opacity:0.25;fill-rule:nonzero;stroke:none"
             id="path120" /></g><g
           id="g122"><path
             d="m 74.18282,65.61119 c 0.19886,0 0.39003,0.07909 0.53065,0.22081 0.14174,0.14064 0.22083,0.3318 0.22083,0.53066 0,0.19885 -0.07909,0.39001 -0.22083,0.53065 -0.14062,0.14063 -0.33179,0.21973 -0.53065,0.21973 -0.19884,0 -0.39,-0.0791 -0.53064,-0.21973 -0.14063,-0.14064 -0.21973,-0.3318 -0.21973,-0.53065 0,-0.19886 0.0791,-0.39002 0.21973,-0.53066 0.14064,-0.14172 0.3318,-0.22081 0.53064,-0.22081 z"
             style="fill:#818181;fill-opacity:0.25;fill-rule:nonzero;stroke:none"
             id="path124" /></g><g
           id="g126"><path
             d="m 74.18282,82.74678 c 0.6482,0 1.26893,0.25708 1.72708,0.71522 0.45703,0.45812 0.71522,1.07886 0.71522,1.72707 0,0.6471 -0.25819,1.26784 -0.71522,1.72597 -0.45815,0.45814 -1.07888,0.71522 -1.72708,0.71522 -0.6471,0 -1.26782,-0.25708 -1.72597,-0.71522 -0.45813,-0.45813 -0.71521,-1.07887 -0.71521,-1.72597 0,-0.64821 0.25708,-1.26895 0.71521,-1.72707 0.45815,-0.45814 1.07887,-0.71522 1.72597,-0.71522 z"
             style="fill:#1f1f1f;fill-opacity:0.25;fill-rule:nonzero;stroke:none"
             id="path128" /></g><g
           id="g130"><path
             d="m 74.18282,100.99861 c 0.79982,0 1.56778,0.3186 2.13248,0.8833 0.5658,0.56581 0.88332,1.33266 0.88332,2.13248 0,0.79981 -0.31752,1.56776 -0.88332,2.13248 -0.5647,0.56579 -1.33266,0.88331 -2.13248,0.88331 -0.79981,0 -1.56667,-0.31752 -2.13247,-0.88331 -0.56581,-0.56472 -0.88331,-1.33267 -0.88331,-2.13248 0,-0.79982 0.3175,-1.56667 0.88331,-2.13248 0.5658,-0.5647 1.33266,-0.8833 2.13247,-0.8833 z"
             style="fill:#212121;fill-opacity:0.25;fill-rule:nonzero;stroke:none"
             id="path132" /></g><g
           id="g134"><path
             d="m 74.18282,122.5255 c 0.08461,0 0.16481,0.0329 0.22413,0.0923 0.05933,0.0593 0.09229,0.13953 0.09229,0.22301 0,0.0846 -0.03296,0.16481 -0.09229,0.22414 -0.05932,0.0593 -0.13952,0.0923 -0.22413,0.0923 -0.08349,0 -0.1637,-0.033 -0.22301,-0.0923 -0.05934,-0.0593 -0.0923,-0.13953 -0.0923,-0.22414 0,-0.0835 0.03296,-0.16369 0.0923,-0.22301 0.05931,-0.0593 0.13952,-0.0923 0.22301,-0.0923 z"
             style="fill:#d8d8d8;fill-opacity:0.25;fill-rule:nonzero;stroke:none"
             id="path136" /></g><g
           id="g138"><path
             d="m 74.18282,138.60199 c 0.813,0 1.59304,0.323 2.16763,0.89758 0.5746,0.5757 0.89761,1.35465 0.89761,2.16765 0,0.81299 -0.32301,1.59303 -0.89761,2.16763 -0.57459,0.57459 -1.35463,0.89759 -2.16763,0.89759 -0.81299,0 -1.59194,-0.323 -2.16652,-0.89759 -0.57569,-0.5746 -0.8987,-1.35464 -0.8987,-2.16763 0,-0.813 0.32301,-1.59195 0.8987,-2.16765 0.57458,-0.57458 1.35353,-0.89758 2.16652,-0.89758 z"
             style="fill:#646464;fill-opacity:0.25;fill-rule:nonzero;stroke:none"
             id="path140" /></g><g
           id="g142"><path
             d="m 74.18282,157.14825 c 0.88772,0 1.73808,0.35267 2.3654,0.98 0.62732,0.62732 0.97999,1.47768 0.97999,2.36539 0,0.88661 -0.35267,1.73805 -0.97999,2.36537 -0.62732,0.62733 -1.47768,0.97999 -2.3654,0.97999 -0.8866,0 -1.73806,-0.35266 -2.36538,-0.97999 -0.62733,-0.62732 -0.97999,-1.47876 -0.97999,-2.36537 0,-0.88771 0.35266,-1.73807 0.97999,-2.36539 0.62732,-0.62733 1.47878,-0.98 2.36538,-0.98 z"
             style="fill:#2b2b2b;fill-opacity:0.25;fill-rule:nonzero;stroke:none"
             id="path144" /></g><g
           id="g146"><path
             d="m 74.18282,178.25436 c 0.28236,0 0.55374,0.11205 0.75369,0.312 0.19995,0.19998 0.31199,0.47023 0.31199,0.75369 0,0.28235 -0.11204,0.55371 -0.31199,0.75367 -0.19995,0.19995 -0.47133,0.31202 -0.75369,0.31202 -0.28235,0 -0.55372,-0.11207 -0.75367,-0.31202 -0.19995,-0.19996 -0.31201,-0.47132 -0.31201,-0.75367 0,-0.28346 0.11206,-0.55371 0.31201,-0.75369 0.19995,-0.19995 0.47132,-0.312 0.75367,-0.312 z"
             style="fill:#cdcdcd;fill-opacity:0.25;fill-rule:nonzero;stroke:none"
             id="path148" /></g><g
           id="g150"><path
             d="m 74.18282,194.87799 c 0.86683,0 1.69851,0.34497 2.31045,0.95691 0.61305,0.61305 0.95804,1.44472 0.95804,2.31046 0,0.86683 -0.34499,1.69851 -0.95804,2.31155 -0.61194,0.61195 -1.44362,0.95692 -2.31045,0.95692 -0.86682,0 -1.69741,-0.34497 -2.31044,-0.95692 -0.61306,-0.61304 -0.95694,-1.44472 -0.95694,-2.31155 0,-0.86574 0.34388,-1.69741 0.95694,-2.31046 0.61303,-0.61194 1.44362,-0.95691 2.31044,-0.95691 z"
             style="fill:#e8e8e8;fill-opacity:0.25;fill-rule:nonzero;stroke:none"
             id="path152" /></g><g
           id="g154"><path
             d="m 106.79066,8.28818 c 0.42408,0 0.82949,0.16809 1.12832,0.46692 0.29992,0.29994 0.46802,0.70533 0.46802,1.1283 0,0.42298 -0.1681,0.82949 -0.46802,1.12833 -0.29883,0.29992 -0.70424,0.46802 -1.12832,0.46802 -0.42297,0 -0.82838,-0.1681 -1.12829,-0.46802 -0.29884,-0.29884 -0.46694,-0.70535 -0.46694,-1.12833 0,-0.42297 0.1681,-0.82836 0.46694,-1.1283 0.29991,-0.29883 0.70532,-0.46692 1.12829,-0.46692 z"
             style="fill:#d4d4d4;fill-opacity:0.25;fill-rule:nonzero;stroke:none"
             id="path156" /></g><g
           id="g158"><path
             d="m 106.79066,27.12997 c 0.41968,0 0.8218,0.1659 1.11734,0.46254 0.29664,0.29662 0.46363,0.69873 0.46363,1.11731 0,0.41968 -0.16699,0.8218 -0.46363,1.11733 -0.29554,0.29665 -0.69766,0.46364 -1.11734,0.46364 -0.41857,0 -0.82069,-0.16699 -1.11732,-0.46364 -0.29663,-0.29553 -0.46252,-0.69765 -0.46252,-1.11733 0,-0.41858 0.16589,-0.82069 0.46252,-1.11731 0.29663,-0.29664 0.69875,-0.46254 1.11732,-0.46254 z"
             style="fill:#b6b6b6;fill-opacity:0.25;fill-rule:nonzero;stroke:none"
             id="path160" /></g><g
           id="g162"><path
             d="m 106.79066,45.18735 c 0.62294,0 1.2206,0.24717 1.66115,0.68774 0.44057,0.44055 0.68776,1.03822 0.68776,1.66115 0,0.62294 -0.24719,1.2206 -0.68776,1.66115 -0.44055,0.44056 -1.03821,0.68776 -1.66115,0.68776 -0.62292,0 -1.21949,-0.2472 -1.66004,-0.68776 -0.44056,-0.44055 -0.68886,-1.03821 -0.68886,-1.66115 0,-0.62293 0.2483,-1.2206 0.68886,-1.66115 0.44055,-0.44057 1.03712,-0.68774 1.66004,-0.68774 z"
             style="fill:#191919;fill-opacity:0.25;fill-rule:nonzero;stroke:none"
             id="path164" /></g><g
           id="g166"><path
             d="m 106.79066,66.35387 c 0.003,0 0.005,0 0.007,0.0022 0.002,0.0022 0.002,0.0044 0.002,0.0066 0,0.0022 0,0.0044 -0.002,0.0066 -10e-4,0.0011 -0.003,0.0022 -0.007,0.0022 -0.002,0 -0.004,-0.0011 -0.005,-0.0022 -0.002,-0.0022 -0.003,-0.0044 -0.003,-0.0066 0,-0.0022 10e-4,-0.0044 0.003,-0.0066 0.001,-0.0022 0.003,-0.0022 0.005,-0.0022 z"
             style="fill:#e9e9e9;fill-opacity:0.25;fill-rule:nonzero;stroke:none"
             id="path168" /></g><g
           id="g170"><path
             d="m 106.79066,83.81467 c 0.36477,0 0.71413,0.14502 0.97121,0.40321 0.25818,0.25708 0.40321,0.60645 0.40321,0.97119 0,0.36366 -0.14503,0.71303 -0.40321,0.97121 -0.25708,0.25708 -0.60644,0.4021 -0.97121,0.4021 -0.36364,0 -0.71301,-0.14502 -0.9712,-0.4021 -0.25708,-0.25818 -0.40209,-0.60755 -0.40209,-0.97121 0,-0.36474 0.14501,-0.71411 0.40209,-0.97119 0.25819,-0.25819 0.60756,-0.40321 0.9712,-0.40321 z"
             style="fill:#939393;fill-opacity:0.25;fill-rule:nonzero;stroke:none"
             id="path172" /></g><g
           id="g174"><path
             d="m 106.79066,101.51387 c 0.66359,0 1.2997,0.26367 1.76884,0.73279 0.46911,0.46913 0.7317,1.10524 0.7317,1.76773 0,0.66359 -0.26259,1.2997 -0.7317,1.76881 -0.46914,0.46913 -1.10525,0.7328 -1.76884,0.7328 -0.66249,0 -1.29859,-0.26367 -1.76771,-0.7328 -0.46913,-0.46911 -0.73279,-1.10522 -0.73279,-1.76881 0,-0.66249 0.26366,-1.2986 0.73279,-1.76773 0.46912,-0.46912 1.10522,-0.73279 1.76771,-0.73279 z"
             style="fill:#e6e6e6;fill-opacity:0.25;fill-rule:nonzero;stroke:none"
             id="path176" /></g><g
           id="g178"><path
             d="m 106.79066,121.03903 c 0.47791,0 0.93606,0.19005 1.27444,0.52844 0.33727,0.33728 0.52735,0.79541 0.52735,1.27332 0,0.47792 -0.19008,0.93607 -0.52735,1.27444 -0.33838,0.3373 -0.79653,0.52735 -1.27444,0.52735 -0.4779,0 -0.93605,-0.19005 -1.27333,-0.52735 -0.33837,-0.33837 -0.52845,-0.79652 -0.52845,-1.27444 0,-0.47791 0.19008,-0.93604 0.52845,-1.27332 0.33728,-0.33839 0.79543,-0.52844 1.27333,-0.52844 z"
             style="fill:#909090;fill-opacity:0.25;fill-rule:nonzero;stroke:none"
             id="path180" /></g><g
           id="g182"><path
             d="m 106.79066,139.90059 c 0.46912,0 0.91848,0.18568 1.25026,0.51746 0.33071,0.33068 0.51746,0.78004 0.51746,1.24917 0,0.46912 -0.18675,0.91848 -0.51746,1.24916 -0.33178,0.33179 -0.78114,0.51857 -1.25026,0.51857 -0.46801,0 -0.91736,-0.18678 -1.24916,-0.51857 -0.33178,-0.33068 -0.51745,-0.78004 -0.51745,-1.24916 0,-0.46913 0.18567,-0.91849 0.51745,-1.24917 0.3318,-0.33178 0.78115,-0.51746 1.24916,-0.51746 z"
             style="fill:#020202;fill-opacity:0.25;fill-rule:nonzero;stroke:none"
             id="path184" /></g><g
           id="g186"><path
             d="m 106.79066,157.53497 c 0.78444,0 1.53702,0.31201 2.09183,0.86684 0.55481,0.55481 0.86684,1.30739 0.86684,2.09183 0,0.78444 -0.31203,1.537 -0.86684,2.09181 -0.55481,0.55482 -1.30739,0.86574 -2.09183,0.86574 -0.78443,0 -1.537,-0.31092 -2.09181,-0.86574 -0.55482,-0.55481 -0.86574,-1.30737 -0.86574,-2.09181 0,-0.78444 0.31092,-1.53702 0.86574,-2.09183 0.55481,-0.55483 1.30738,-0.86684 2.09181,-0.86684 z"
             style="fill:#fefefe;fill-opacity:0.25;fill-rule:nonzero;stroke:none"
             id="path188" /></g><g
           id="g190"><path
             d="m 106.79066,175.74396 c 0.94924,0 1.85782,0.37681 2.5291,1.04699 0.67017,0.67128 1.047,1.58097 1.047,2.5291 0,0.94814 -0.37683,1.85781 -1.047,2.52799 -0.67128,0.67018 -1.57986,1.04699 -2.5291,1.04699 -0.94813,0 -1.85781,-0.37681 -2.52798,-1.04699 -0.67018,-0.67018 -1.04701,-1.57985 -1.04701,-2.52799 0,-0.94813 0.37683,-1.85782 1.04701,-2.5291 0.67017,-0.67018 1.57985,-1.04699 2.52798,-1.04699 z"
             style="fill:#212121;fill-opacity:0.25;fill-rule:nonzero;stroke:none"
             id="path192" /></g><g
           id="g194"><path
             d="m 106.79066,196.21393 c 0.51308,0 1.00417,0.20326 1.36672,0.56581 0.36256,0.36256 0.56581,0.85365 0.56581,1.36562 0,0.51307 -0.20325,1.00416 -0.56581,1.36672 -0.36255,0.36255 -0.85364,0.5658 -1.36672,0.5658 -0.51196,0 -1.00416,-0.20325 -1.36561,-0.5658 -0.36257,-0.36256 -0.56691,-0.85365 -0.56691,-1.36672 0,-0.51197 0.20434,-1.00306 0.56691,-1.36562 0.36145,-0.36255 0.85365,-0.56581 1.36561,-0.56581 z"
             style="fill:#b1b1b1;fill-opacity:0.25;fill-rule:nonzero;stroke:none"
             id="path196" /></g><g
           id="g198"><path
             d="m 139.39851,8.81332 c 0.28455,0 0.55703,0.11316 0.75698,0.31423 0.20105,0.19995 0.31421,0.47241 0.31421,0.75585 0,0.28455 -0.11316,0.55593 -0.31421,0.75698 -0.19995,0.20105 -0.47243,0.31311 -0.75698,0.31311 -0.28344,0 -0.55592,-0.11206 -0.75587,-0.31311 -0.20105,-0.20105 -0.31421,-0.47243 -0.31421,-0.75698 0,-0.28344 0.11316,-0.5559 0.31421,-0.75585 0.19995,-0.20107 0.47243,-0.31423 0.75587,-0.31423 z"
             style="fill:#555555;fill-opacity:0.25;fill-rule:nonzero;stroke:none"
             id="path200" /></g><g
           id="g202"><path
             d="m 139.39851,27.85507 c 0.22742,0 0.44495,0.09009 0.60535,0.25051 0.15932,0.1604 0.24941,0.37794 0.24941,0.60424 0,0.22634 -0.0901,0.44385 -0.24941,0.60427 -0.1604,0.1604 -0.37793,0.25049 -0.60535,0.25049 -0.22631,0 -0.44384,-0.09009 -0.60426,-0.25049 -0.1593,-0.16042 -0.24939,-0.37793 -0.24939,-0.60427 0,-0.2263 0.0901,-0.44384 0.24939,-0.60424 0.16042,-0.16042 0.37795,-0.25051 0.60426,-0.25051 z"
             style="fill:#2e2e2e;fill-opacity:0.25;fill-rule:nonzero;stroke:none"
             id="path204" /></g><g
           id="g206"><path
             d="m 139.39851,46.33212 c 0.31971,0 0.62624,0.12744 0.85146,0.35268 0.22632,0.2263 0.35266,0.53174 0.35266,0.85144 0,0.3197 -0.12634,0.62512 -0.35266,0.85146 -0.22522,0.22522 -0.53175,0.35157 -0.85146,0.35157 -0.31861,0 -0.62513,-0.12635 -0.85035,-0.35157 -0.22632,-0.22634 -0.35266,-0.53176 -0.35266,-0.85146 0,-0.3197 0.12634,-0.62514 0.35266,-0.85144 0.22522,-0.22524 0.53174,-0.35268 0.85035,-0.35268 z"
             style="fill:#232323;fill-opacity:0.25;fill-rule:nonzero;stroke:none"
             id="path208" /></g><g
           id="g210"><path
             d="m 139.39851,64.62349 c 0.46143,0 0.90419,0.18349 1.22939,0.50978 0.3263,0.32631 0.50976,0.76796 0.50976,1.22939 0,0.46034 -0.18346,0.90309 -0.50976,1.22938 -0.3252,0.32629 -0.76796,0.50868 -1.22939,0.50868 -0.46032,0 -0.90309,-0.18239 -1.22938,-0.50868 -0.3252,-0.32629 -0.50867,-0.76904 -0.50867,-1.22938 0,-0.46143 0.18347,-0.90308 0.50867,-1.22939 0.32629,-0.32629 0.76906,-0.50978 1.22938,-0.50978 z"
             style="fill:#ababab;fill-opacity:0.25;fill-rule:nonzero;stroke:none"
             id="path212" /></g><g
           id="g214"><path
             d="m 139.39851,82.98409 c 0.58559,0 1.14589,0.23181 1.55898,0.64599 0.4142,0.4131 0.64601,0.97341 0.64601,1.55899 0,0.58449 -0.23181,1.14479 -0.64601,1.55788 -0.41309,0.4142 -0.97339,0.64601 -1.55898,0.64601 -0.58448,0 -1.14479,-0.23181 -1.55787,-0.64601 -0.4142,-0.41309 -0.64601,-0.97339 -0.64601,-1.55788 0,-0.58558 0.23181,-1.14589 0.64601,-1.55899 0.41308,-0.41418 0.97339,-0.64599 1.55787,-0.64599 z"
             style="fill:#4d4d4d;fill-opacity:0.25;fill-rule:nonzero;stroke:none"
             id="path216" /></g><g
           id="g218"><path
             d="m 139.39851,103.29477 c 0.19117,0 0.37464,0.0758 0.50977,0.21095 0.13513,0.13513 0.21095,0.31861 0.21095,0.50867 0,0.19116 -0.0758,0.37463 -0.21095,0.50976 -0.13513,0.13514 -0.3186,0.21095 -0.50977,0.21095 -0.19006,0 -0.37353,-0.0758 -0.50866,-0.21095 -0.13515,-0.13513 -0.21095,-0.3186 -0.21095,-0.50976 0,-0.19006 0.0758,-0.37354 0.21095,-0.50867 0.13513,-0.13513 0.3186,-0.21095 0.50866,-0.21095 z"
             style="fill:#9d9d9d;fill-opacity:0.25;fill-rule:nonzero;stroke:none"
             id="path220" /></g><g
           id="g222"><path
             d="m 139.39851,120.35455 c 0.66028,0 1.29309,0.26149 1.75893,0.72841 0.46693,0.46584 0.72841,1.09865 0.72841,1.75783 0,0.66031 -0.26148,1.29202 -0.72841,1.75896 -0.46584,0.4658 -1.09865,0.72839 -1.75893,0.72839 -0.65918,0 -1.29201,-0.26259 -1.75782,-0.72839 -0.46694,-0.46694 -0.72841,-1.09865 -0.72841,-1.75896 0,-0.65918 0.26147,-1.29199 0.72841,-1.75783 0.46581,-0.46692 1.09864,-0.72841 1.75782,-0.72841 z"
             style="fill:#efefef;fill-opacity:0.25;fill-rule:nonzero;stroke:none"
             id="path224" /></g><g
           id="g226"><path
             d="m 139.39851,139.27875 c 0.63391,0 1.24147,0.2516 1.68972,0.69984 0.44825,0.44716 0.69984,1.05471 0.69984,1.68863 0,0.63391 -0.25159,1.24146 -0.69984,1.68971 -0.44825,0.44715 -1.05581,0.69875 -1.68972,0.69875 -0.63282,0 -1.24037,-0.2516 -1.68861,-0.69875 -0.44827,-0.44825 -0.69984,-1.0558 -0.69984,-1.68971 0,-0.63392 0.25157,-1.24147 0.69984,-1.68863 0.44824,-0.44824 1.05579,-0.69984 1.68861,-0.69984 z"
             style="fill:#333333;fill-opacity:0.25;fill-rule:nonzero;stroke:none"
             id="path228" /></g><g
           id="g230"><path
             d="m 139.39851,159.217 c 0.33948,0 0.66359,0.13404 0.90309,0.37355 0.23949,0.2395 0.37464,0.56471 0.37464,0.90309 0,0.33838 -0.13515,0.66357 -0.37464,0.90309 -0.2395,0.2395 -0.56361,0.37353 -0.90309,0.37353 -0.33839,0 -0.66249,-0.13403 -0.90199,-0.37353 -0.2395,-0.23952 -0.37463,-0.56471 -0.37463,-0.90309 0,-0.33838 0.13513,-0.66359 0.37463,-0.90309 0.2395,-0.23951 0.5636,-0.37355 0.90199,-0.37355 z"
             style="fill:#1e1e1e;fill-opacity:0.25;fill-rule:nonzero;stroke:none"
             id="path232" /></g><g
           id="g234"><path
             d="m 139.39851,178.17636 c 0.30323,0 0.59438,0.12084 0.80859,0.33508 0.21426,0.21424 0.3351,0.50538 0.3351,0.80861 0,0.30323 -0.12084,0.59326 -0.3351,0.8075 -0.21421,0.21425 -0.50536,0.33508 -0.80859,0.33508 -0.30214,0 -0.59327,-0.12083 -0.80751,-0.33508 -0.21423,-0.21424 -0.33508,-0.50427 -0.33508,-0.8075 0,-0.30323 0.12085,-0.59437 0.33508,-0.80861 0.21424,-0.21424 0.50537,-0.33508 0.80751,-0.33508 z"
             style="fill:#646464;fill-opacity:0.25;fill-rule:nonzero;stroke:none"
             id="path236" /></g><g
           id="g238"><path
             d="m 139.39851,196.2491 c 0.50318,0 0.98549,0.19995 1.34145,0.55592 0.35596,0.35594 0.55591,0.83826 0.55591,1.34034 0,0.50318 -0.19995,0.98548 -0.55591,1.34146 -0.35596,0.35595 -0.83827,0.5559 -1.34145,0.5559 -0.50209,0 -0.98549,-0.19995 -1.34036,-0.5559 -0.35594,-0.35598 -0.55589,-0.83828 -0.55589,-1.34146 0,-0.50208 0.19995,-0.9844 0.55589,-1.34034 0.35487,-0.35597 0.83827,-0.55592 1.34036,-0.55592 z"
             style="fill:#b1b1b1;fill-opacity:0.25;fill-rule:nonzero;stroke:none"
             id="path240" /></g><g
           id="g242"><path
             d="m 172.00746,9.8834 c 0,0 0,0 0,0 0,0 0,0 0,0 0,0 0,0 0,0 0,0 0,0 0,0 0,0 0,0 0,0 0,0 0,0 0,0 0,0 0,0 0,0 0,0 0,0 0,0 z"
             style="fill:#f1f1f1;fill-opacity:0.25;fill-rule:nonzero;stroke:none"
             id="path244" /></g><g
           id="g246"><path
             d="m 172.00746,27.55405 c 0.30652,0 0.59986,0.12195 0.81738,0.33838 0.21645,0.21643 0.3384,0.51087 0.3384,0.81739 0,0.30652 -0.12195,0.60097 -0.3384,0.8174 -0.21752,0.21753 -0.51086,0.33838 -0.81738,0.33838 -0.30653,0 -0.60096,-0.12085 -0.8174,-0.33838 -0.21754,-0.21643 -0.33949,-0.51088 -0.33949,-0.8174 0,-0.30652 0.12195,-0.60096 0.33949,-0.81739 0.21644,-0.21643 0.51087,-0.33838 0.8174,-0.33838 z"
             style="fill:#292929;fill-opacity:0.25;fill-rule:nonzero;stroke:none"
             id="path248" /></g><g
           id="g250"><path
             d="m 172.00746,46.13547 c 0.37134,0 0.7273,0.14721 0.98987,0.40979 0.26369,0.26259 0.4109,0.61964 0.4109,0.99098 0,0.37134 -0.14721,0.72841 -0.4109,0.99098 -0.26257,0.26258 -0.61853,0.40979 -0.98987,0.40979 -0.37245,0 -0.72841,-0.14721 -0.99098,-0.40979 -0.26259,-0.26257 -0.4109,-0.61964 -0.4109,-0.99098 0,-0.37134 0.14831,-0.72839 0.4109,-0.99098 0.26257,-0.26258 0.61853,-0.40979 0.99098,-0.40979 z"
             style="fill:#757575;fill-opacity:0.25;fill-rule:nonzero;stroke:none"
             id="path252" /></g><g
           id="g254"><path
             d="m 172.00746,65.3475 c 0.26805,0 0.52624,0.10768 0.71631,0.29773 0.19118,0.19008 0.29773,0.44825 0.29773,0.71743 0,0.26918 -0.10655,0.52734 -0.29773,0.71742 -0.19007,0.19006 -0.44826,0.29663 -0.71631,0.29663 -0.26918,0 -0.52736,-0.10657 -0.71742,-0.29663 -0.19008,-0.19008 -0.29774,-0.44824 -0.29774,-0.71742 0,-0.26918 0.10766,-0.52735 0.29774,-0.71743 0.19006,-0.19005 0.44824,-0.29773 0.71742,-0.29773 z"
             style="fill:#474747;fill-opacity:0.25;fill-rule:nonzero;stroke:none"
             id="path256" /></g><g
           id="g258"><path
             d="m 172.00746,83.37631 c 0.4801,0 0.94153,0.19116 1.28101,0.53064 0.33949,0.33949 0.53065,0.80092 0.53065,1.28212 0,0.4801 -0.19116,0.94155 -0.53065,1.28103 -0.33948,0.33949 -0.80091,0.53065 -1.28101,0.53065 -0.48121,0 -0.94264,-0.19116 -1.28213,-0.53065 -0.33948,-0.33948 -0.53064,-0.80093 -0.53064,-1.28103 0,-0.4812 0.19116,-0.94263 0.53064,-1.28212 0.33949,-0.33948 0.80092,-0.53064 1.28213,-0.53064 z"
             style="fill:#343434;fill-opacity:0.25;fill-rule:nonzero;stroke:none"
             id="path260" /></g><g
           id="g262"><path
             d="m 172.00746,102.01045 c 0.53064,0 1.04041,0.21094 1.41725,0.58667 0.37574,0.37575 0.58667,0.88661 0.58667,1.41727 0,0.53174 -0.21093,1.04152 -0.58667,1.41725 -0.37684,0.37685 -0.88661,0.58778 -1.41725,0.58778 -0.53175,0 -1.04152,-0.21093 -1.41726,-0.58778 -0.37684,-0.37573 -0.58777,-0.88551 -0.58777,-1.41725 0,-0.53066 0.21093,-1.04152 0.58777,-1.41727 0.37574,-0.37573 0.88551,-0.58667 1.41726,-0.58667 z"
             style="fill:#4e4e4e;fill-opacity:0.25;fill-rule:nonzero;stroke:none"
             id="path264" /></g><g
           id="g266"><path
             d="m 172.00746,122.04759 c 0.20983,0 0.41199,0.0835 0.5603,0.23181 0.14942,0.1494 0.23291,0.35157 0.23291,0.56139 0,0.21095 -0.0835,0.4131 -0.23291,0.56141 -0.14831,0.14942 -0.35047,0.23293 -0.5603,0.23293 -0.21095,0 -0.4131,-0.0835 -0.56142,-0.23293 -0.14941,-0.14831 -0.23292,-0.35046 -0.23292,-0.56141 0,-0.20982 0.0835,-0.41199 0.23292,-0.56139 0.14832,-0.14833 0.35047,-0.23181 0.56142,-0.23181 z"
             style="fill:#cbcbcb;fill-opacity:0.25;fill-rule:nonzero;stroke:none"
             id="path268" /></g><g
           id="g270"><path
             d="m 172.00746,138.7547 c 0.77234,0 1.51282,0.30653 2.05885,0.85255 0.54604,0.54602 0.85366,1.28762 0.85366,2.05997 0,0.77234 -0.30762,1.51393 -0.85366,2.05995 -0.54603,0.54604 -1.28651,0.85256 -2.05885,0.85256 -0.77346,0 -1.51394,-0.30652 -2.05998,-0.85256 -0.54602,-0.54602 -0.85365,-1.28761 -0.85365,-2.05995 0,-0.77235 0.30763,-1.51395 0.85365,-2.05997 0.54604,-0.54602 1.28652,-0.85255 2.05998,-0.85255 z"
             style="fill:#171717;fill-opacity:0.25;fill-rule:nonzero;stroke:none"
             id="path272" /></g><g
           id="g274"><path
             d="m 172.00746,158.3304 c 0.57347,0 1.12392,0.22742 1.5293,0.63283 0.40541,0.40649 0.63392,0.95691 0.63392,1.53041 0,0.57348 -0.22851,1.1239 -0.63392,1.52931 -0.40538,0.40651 -0.95583,0.63393 -1.5293,0.63393 -0.5746,0 -1.12503,-0.22742 -1.53042,-0.63393 -0.4054,-0.40541 -0.63392,-0.95583 -0.63392,-1.52931 0,-0.5735 0.22852,-1.12392 0.63392,-1.53041 0.40539,-0.40541 0.95582,-0.63283 1.53042,-0.63283 z"
             style="fill:#dedede;fill-opacity:0.25;fill-rule:nonzero;stroke:none"
             id="path276" /></g><g
           id="g278"><path
             d="m 172.00746,177.94783 c 0.36365,0 0.7119,0.14502 0.97009,0.4021 0.25708,0.2571 0.40101,0.60536 0.40101,0.97012 0,0.36365 -0.14393,0.71193 -0.40101,0.9701 -0.25819,0.25708 -0.60644,0.40101 -0.97009,0.40101 -0.36476,0 -0.71304,-0.14393 -0.97012,-0.40101 -0.25817,-0.25817 -0.4021,-0.60645 -0.4021,-0.9701 0,-0.36476 0.14393,-0.71302 0.4021,-0.97012 0.25708,-0.25708 0.60536,-0.4021 0.97012,-0.4021 z"
             style="fill:#d5d5d5;fill-opacity:0.25;fill-rule:nonzero;stroke:none"
             id="path280" /></g><g
           id="g282"><path
             d="m 172.00746,196.4853 c 0.43945,0 0.86243,0.17579 1.17334,0.48672 0.31091,0.31091 0.4867,0.73388 0.4867,1.17334 0,0.44054 -0.17579,0.86354 -0.4867,1.17446 -0.31091,0.31092 -0.73389,0.4856 -1.17334,0.4856 -0.44056,0 -0.86356,-0.17468 -1.17446,-0.4856 -0.31092,-0.31092 -0.4856,-0.73392 -0.4856,-1.17446 0,-0.43946 0.17468,-0.86243 0.4856,-1.17334 0.3109,-0.31093 0.7339,-0.48672 1.17446,-0.48672 z"
             style="fill:#aeaeae;fill-opacity:0.25;fill-rule:nonzero;stroke:none"
             id="path284" /></g><g
           id="g286"><path
             d="m 25.27106,16.94551 c 0.62402,0 1.22169,0.24721 1.66336,0.68886 0.44055,0.44057 0.68884,1.03821 0.68884,1.66226 0,0.62402 -0.24829,1.22168 -0.68884,1.66335 -0.44167,0.44055 -1.03934,0.68884 -1.66336,0.68884 -0.62403,0 -1.22168,-0.24829 -1.66335,-0.68884 -0.44055,-0.44167 -0.68886,-1.03933 -0.68886,-1.66335 0,-0.62405 0.24831,-1.22169 0.68886,-1.66226 0.44167,-0.44165 1.03932,-0.68886 1.66335,-0.68886 z"
             style="fill:#4b4b4b;fill-opacity:0.25;fill-rule:nonzero;stroke:none"
             id="path288" /></g><g
           id="g290"><path
             d="m 25.27106,35.26656 c 0.75807,0 1.48428,0.30102 2.01931,0.83715 0.53613,0.53505 0.83718,1.26235 0.83718,2.01934 0,0.75805 -0.30105,1.48425 -0.83718,2.0193 -0.53503,0.53615 -1.26124,0.83717 -2.01931,0.83717 -0.75696,0 -1.48427,-0.30102 -2.01931,-0.83717 -0.53615,-0.53505 -0.83717,-1.26125 -0.83717,-2.0193 0,-0.75699 0.30102,-1.48429 0.83717,-2.01934 0.53504,-0.53613 1.26235,-0.83715 2.01931,-0.83715 z"
             style="fill:#2a2a2a;fill-opacity:0.25;fill-rule:nonzero;stroke:none"
             id="path292" /></g><g
           id="g294"><path
             d="m 25.27106,53.53815 c 0.9053,0 1.77212,0.35925 2.41263,0.99867 0.63941,0.64052 0.99867,1.50735 0.99867,2.41263 0,0.90417 -0.35926,1.77212 -0.99867,2.41153 -0.64051,0.6405 -1.50733,0.99977 -2.41263,0.99977 -0.90418,0 -1.77211,-0.35927 -2.41153,-0.99977 -0.64051,-0.63941 -0.99976,-1.50736 -0.99976,-2.41153 0,-0.90528 0.35925,-1.77211 0.99976,-2.41263 0.63942,-0.63942 1.50735,-0.99867 2.41153,-0.99867 z"
             style="fill:#ebebeb;fill-opacity:0.25;fill-rule:nonzero;stroke:none"
             id="path296" /></g><g
           id="g298"><path
             d="m 25.27106,72.49092 c 0.87123,0 1.70619,0.34607 2.32254,0.9624 0.61635,0.61524 0.96242,1.45131 0.96242,2.32254 0,0.87124 -0.34607,1.7062 -0.96242,2.32254 -0.61635,0.61525 -1.45131,0.96132 -2.32254,0.96132 -0.87122,0 -1.70619,-0.34607 -2.32254,-0.96132 -0.61634,-0.61634 -0.96241,-1.4513 -0.96241,-2.32254 0,-0.87123 0.34607,-1.7073 0.96241,-2.32254 0.61635,-0.61633 1.45132,-0.9624 2.32254,-0.9624 z"
             style="fill:#121212;fill-opacity:0.25;fill-rule:nonzero;stroke:none"
             id="path300" /></g><g
           id="g302"><path
             d="m 25.27106,92.05562 c 0.67567,0 1.32277,0.26806 1.80069,0.74597 0.47682,0.47682 0.74598,1.12503 0.74598,1.79959 0,0.67566 -0.26916,1.32387 -0.74598,1.80069 -0.47792,0.47789 -1.12502,0.74597 -1.80069,0.74597 -0.67566,0 -1.32277,-0.26808 -1.80068,-0.74597 -0.47682,-0.47682 -0.74488,-1.12503 -0.74488,-1.80069 0,-0.67456 0.26806,-1.32277 0.74488,-1.79959 0.47791,-0.47791 1.12502,-0.74597 1.80068,-0.74597 z"
             style="fill:#797979;fill-opacity:0.25;fill-rule:nonzero;stroke:none"
             id="path304" /></g><g
           id="g306"><path
             d="m 25.27106,112.21579 c 0.3219,0 0.63063,0.12744 0.85694,0.35487 0.22744,0.22741 0.35596,0.53612 0.35596,0.85694 0,0.3219 -0.12852,0.63061 -0.35596,0.85804 -0.22631,0.22742 -0.53504,0.35486 -0.85694,0.35486 -0.3219,0 -0.62953,-0.12744 -0.85695,-0.35486 -0.22741,-0.22743 -0.35596,-0.53614 -0.35596,-0.85804 0,-0.32082 0.12855,-0.62953 0.35596,-0.85694 0.22742,-0.22743 0.53505,-0.35487 0.85695,-0.35487 z"
             style="fill:#5c5c5c;fill-opacity:0.25;fill-rule:nonzero;stroke:none"
             id="path308" /></g><g
           id="g310"><path
             d="m 25.27106,128.59662 c 0.97011,0 1.90066,0.38562 2.58622,1.07117 0.68555,0.68556 1.07119,1.61611 1.07119,2.58622 0,0.97009 -0.38564,1.90065 -1.07119,2.58622 -0.68556,0.68556 -1.61611,1.07117 -2.58622,1.07117 -0.9701,0 -1.90066,-0.38561 -2.58622,-1.07117 -0.68554,-0.68557 -1.07118,-1.61613 -1.07118,-2.58622 0,-0.97011 0.38564,-1.90066 1.07118,-2.58622 0.68556,-0.68555 1.61612,-1.07117 2.58622,-1.07117 z"
             style="fill:#282828;fill-opacity:0.25;fill-rule:nonzero;stroke:none"
             id="path312" /></g><g
           id="g314"><path
             d="m 25.27106,148.69307 c 0.63282,0 1.24038,0.25159 1.68753,0.69983 0.44824,0.44716 0.69984,1.0547 0.69984,1.68753 0,0.63281 -0.2516,1.24036 -0.69984,1.68751 -0.44715,0.44825 -1.05471,0.69983 -1.68753,0.69983 -0.63282,0 -1.24037,-0.25158 -1.68752,-0.69983 -0.44826,-0.44715 -0.69873,-1.0547 -0.69873,-1.68751 0,-0.63283 0.25047,-1.24037 0.69873,-1.68753 0.44715,-0.44824 1.0547,-0.69983 1.68752,-0.69983 z"
             style="fill:#f7f7f7;fill-opacity:0.25;fill-rule:nonzero;stroke:none"
             id="path316" /></g><g
           id="g318"><path
             d="m 25.27106,167.96443 c 0.51527,0 1.00966,0.20435 1.37332,0.56911 0.36474,0.36365 0.56909,0.85803 0.56909,1.37329 0,0.51527 -0.20435,1.00856 -0.56909,1.37332 -0.36366,0.36365 -0.85805,0.56911 -1.37332,0.56911 -0.51526,0 -1.00856,-0.20546 -1.37329,-0.56911 -0.36367,-0.36476 -0.56911,-0.85805 -0.56911,-1.37332 0,-0.51526 0.20544,-1.00964 0.56911,-1.37329 0.36473,-0.36476 0.85803,-0.56911 1.37329,-0.56911 z"
             style="fill:#383838;fill-opacity:0.25;fill-rule:nonzero;stroke:none"
             id="path320" /></g><g
           id="g322"><path
             d="m 25.27106,184.799 c 1.04373,0 2.04348,0.4142 2.78178,1.15248 0.73718,0.73719 1.15248,1.73805 1.15248,2.78177 0,1.04261 -0.4153,2.04348 -1.15248,2.78067 -0.7383,0.73831 -1.73805,1.15249 -2.78178,1.15249 -1.04261,0 -2.04348,-0.41418 -2.78177,-1.15249 -0.7372,-0.73719 -1.15139,-1.73806 -1.15139,-2.78067 0,-1.04372 0.41419,-2.04458 1.15139,-2.78177 0.73829,-0.73828 1.73916,-1.15248 2.78177,-1.15248 z"
             style="fill:#b6b6b6;fill-opacity:0.25;fill-rule:nonzero;stroke:none"
             id="path324" /></g><g
           id="g326"><path
             d="m 25.27106,205.95454 c 0.42518,0 0.83387,0.16919 1.1349,0.47023 0.29994,0.30103 0.46912,0.70862 0.46912,1.13379 0,0.42629 -0.16918,0.83388 -0.46912,1.13491 -0.30103,0.30102 -0.70972,0.47023 -1.1349,0.47023 -0.42517,0 -0.83386,-0.16921 -1.13381,-0.47023 -0.30102,-0.30103 -0.47021,-0.70862 -0.47021,-1.13491 0,-0.42517 0.16919,-0.83276 0.47021,-1.13379 0.29995,-0.30104 0.70864,-0.47023 1.13381,-0.47023 z"
             style="fill:#e1e1e1;fill-opacity:0.25;fill-rule:nonzero;stroke:none"
             id="path328" /></g><g
           id="g330"><path
             d="m 57.8789,17.8563 c 0.38235,0 0.74929,0.1516 1.01845,0.42187 0.27027,0.27028 0.42189,0.63612 0.42189,1.01846 0,0.38233 -0.15162,0.74927 -0.42189,1.01843 -0.26916,0.27027 -0.6361,0.42189 -1.01845,0.42189 -0.38232,0 -0.74816,-0.15162 -1.01844,-0.42189 -0.27026,-0.26916 -0.42188,-0.6361 -0.42188,-1.01843 0,-0.38234 0.15162,-0.74818 0.42188,-1.01846 0.27028,-0.27027 0.63612,-0.42187 1.01844,-0.42187 z"
             style="fill:#ababab;fill-opacity:0.25;fill-rule:nonzero;stroke:none"
             id="path332" /></g><g
           id="g334"><path
             d="m 57.8789,35.80598 c 0.61416,0 1.20412,0.245 1.63808,0.67897 0.43508,0.43398 0.67897,1.02395 0.67897,1.6381 0,0.61412 -0.24389,1.2041 -0.67897,1.63807 -0.43396,0.43506 -1.02392,0.67896 -1.63808,0.67896 -0.61413,0 -1.20301,-0.2439 -1.63809,-0.67896 -0.43396,-0.43397 -0.67787,-1.02395 -0.67787,-1.63807 0,-0.61415 0.24391,-1.20412 0.67787,-1.6381 0.43508,-0.43397 1.02396,-0.67897 1.63809,-0.67897 z"
             style="fill:#242424;fill-opacity:0.25;fill-rule:nonzero;stroke:none"
             id="path336" /></g><g
           id="g338"><path
             d="m 57.8789,54.63899 c 0.61304,0 1.20083,0.2439 1.63369,0.67678 0.43397,0.43286 0.67676,1.02064 0.67676,1.63368 0,0.61305 -0.24279,1.19972 -0.67676,1.6337 -0.43286,0.43285 -1.02065,0.67675 -1.63369,0.67675 -0.61195,0 -1.19972,-0.2439 -1.63369,-0.67675 -0.43286,-0.43398 -0.67676,-1.02065 -0.67676,-1.6337 0,-0.61304 0.2439,-1.20082 0.67676,-1.63368 0.43397,-0.43288 1.02174,-0.67678 1.63369,-0.67678 z"
             style="fill:#cacaca;fill-opacity:0.25;fill-rule:nonzero;stroke:none"
             id="path340" /></g><g
           id="g342"><path
             d="m 57.8789,72.66231 c 0.8262,0 1.61721,0.32847 2.2017,0.91186 0.58337,0.58449 0.91078,1.37551 0.91078,2.20169 0,0.82509 -0.32741,1.61721 -0.91078,2.2006 -0.58449,0.58337 -1.3755,0.91188 -2.2017,0.91188 -0.82508,0 -1.61721,-0.32851 -2.20059,-0.91188 -0.58448,-0.58339 -0.91186,-1.37551 -0.91186,-2.2006 0,-0.82618 0.32738,-1.6172 0.91186,-2.20169 0.58338,-0.58339 1.37551,-0.91186 2.20059,-0.91186 z"
             style="fill:#373737;fill-opacity:0.25;fill-rule:nonzero;stroke:none"
             id="path344" /></g><g
           id="g346"><path
             d="m 57.8789,92.37971 c 0.58999,0 1.15467,0.23401 1.57217,0.65039 0.41638,0.4164 0.6504,0.98221 0.6504,1.57108 0,0.58997 -0.23402,1.15576 -0.6504,1.57218 -0.4175,0.41638 -0.98218,0.65039 -1.57217,0.65039 -0.58888,0 -1.15467,-0.23401 -1.57105,-0.65039 -0.4175,-0.41642 -0.65151,-0.98221 -0.65151,-1.57218 0,-0.58887 0.23401,-1.15468 0.65151,-1.57108 0.41638,-0.41638 0.98217,-0.65039 1.57105,-0.65039 z"
             style="fill:#f4f4f4;fill-opacity:0.25;fill-rule:nonzero;stroke:none"
             id="path348" /></g><g
           id="g350"><path
             d="m 57.8789,112.19382 c 0.3274,0 0.64161,0.12964 0.87342,0.36145 0.23073,0.23183 0.36146,0.54493 0.36146,0.87233 0,0.3274 -0.13073,0.64161 -0.36146,0.87343 -0.23181,0.23069 -0.54602,0.36145 -0.87342,0.36145 -0.3274,0 -0.64161,-0.13076 -0.87232,-0.36145 -0.23181,-0.23182 -0.36147,-0.54603 -0.36147,-0.87343 0,-0.3274 0.12966,-0.6405 0.36147,-0.87233 0.23071,-0.23181 0.54492,-0.36145 0.87232,-0.36145 z"
             style="fill:#151515;fill-opacity:0.25;fill-rule:nonzero;stroke:none"
             id="path352" /></g><g
           id="g354"><path
             d="m 57.8789,129.13055 c 0.82838,0 1.6227,0.3285 2.20939,0.91518 0.58558,0.58557 0.91406,1.3799 0.91406,2.20828 0,0.82837 -0.32848,1.62271 -0.91406,2.20939 -0.58669,0.58557 -1.38101,0.91406 -2.20939,0.91406 -0.82838,0 -1.62269,-0.32849 -2.20828,-0.91406 -0.58557,-0.58668 -0.91517,-1.38102 -0.91517,-2.20939 0,-0.82838 0.3296,-1.62271 0.91517,-2.20828 0.58559,-0.58668 1.3799,-0.91518 2.20828,-0.91518 z"
             style="fill:#a4a4a4;fill-opacity:0.25;fill-rule:nonzero;stroke:none"
             id="path356" /></g><g
           id="g358"><path
             d="m 57.8789,149.40498 c 0.44495,0 0.87012,0.17688 1.18435,0.49109 0.31421,0.31423 0.49109,0.7405 0.49109,1.18436 0,0.44385 -0.17688,0.87012 -0.49109,1.18434 -0.31423,0.31421 -0.7394,0.49109 -1.18435,0.49109 -0.44384,0 -0.87013,-0.17688 -1.18434,-0.49109 -0.31422,-0.31422 -0.49108,-0.74049 -0.49108,-1.18434 0,-0.44386 0.17686,-0.87013 0.49108,-1.18436 0.31421,-0.31421 0.7405,-0.49109 1.18434,-0.49109 z"
             style="fill:#9d9d9d;fill-opacity:0.25;fill-rule:nonzero;stroke:none"
             id="path360" /></g><g
           id="g362"><path
             d="m 57.8789,168.27974 c 0.43178,0 0.84597,0.1714 1.15139,0.47571 0.30432,0.30542 0.47572,0.71962 0.47572,1.15138 0,0.43178 -0.1714,0.84487 -0.47572,1.1503 -0.30542,0.30542 -0.71961,0.47681 -1.15139,0.47681 -0.43176,0 -0.84486,-0.17139 -1.15028,-0.47681 -0.30542,-0.30543 -0.4768,-0.71852 -0.4768,-1.1503 0,-0.43176 0.17138,-0.84596 0.4768,-1.15138 0.30542,-0.30431 0.71852,-0.47571 1.15028,-0.47571 z"
             style="fill:#7a7a7a;fill-opacity:0.25;fill-rule:nonzero;stroke:none"
             id="path364" /></g><g
           id="g366"><path
             d="m 57.8789,186.06685 c 0.70754,0 1.3854,0.28015 1.88529,0.78001 0.50098,0.50101 0.78113,1.17887 0.78113,1.88639 0,0.70643 -0.28015,1.38539 -0.78113,1.88528 -0.49989,0.49988 -1.17775,0.78113 -1.88529,0.78113 -0.70643,0 -1.38538,-0.28125 -1.88528,-0.78113 -0.49989,-0.49989 -0.78114,-1.17885 -0.78114,-1.88528 0,-0.70752 0.28125,-1.38538 0.78114,-1.88639 0.4999,-0.49986 1.17885,-0.78001 1.88528,-0.78001 z"
             style="fill:#2a2a2a;fill-opacity:0.25;fill-rule:nonzero;stroke:none"
             id="path368" /></g><g
           id="g370"><path
             d="m 57.8789,205.11848 c 0.64712,0 1.26784,0.25708 1.72599,0.71522 0.45703,0.45703 0.71411,1.07775 0.71411,1.72486 0,0.6471 -0.25708,1.26784 -0.71411,1.72599 -0.45815,0.45813 -1.07887,0.71521 -1.72599,0.71521 -0.64709,0 -1.26783,-0.25708 -1.72486,-0.71521 -0.45815,-0.45815 -0.71523,-1.07889 -0.71523,-1.72599 0,-0.64711 0.25708,-1.26783 0.71523,-1.72486 0.45703,-0.45814 1.07777,-0.71522 1.72486,-0.71522 z"
             style="fill:#404040;fill-opacity:0.25;fill-rule:nonzero;stroke:none"
             id="path372" /></g><g
           id="g374"><path
             d="m 90.48674,16.83017 c 0.6548,0 1.28212,0.25926 1.74466,0.7218 0.46254,0.46363 0.72292,1.09096 0.72292,1.74466 0,0.65479 -0.26038,1.28212 -0.72292,1.74465 -0.46254,0.46252 -1.08986,0.7229 -1.74466,0.7229 -0.65369,0 -1.28102,-0.26038 -1.74354,-0.7229 -0.46363,-0.46253 -0.72292,-1.08986 -0.72292,-1.74465 0,-0.6537 0.25929,-1.28103 0.72292,-1.74466 0.46252,-0.46254 1.08985,-0.7218 1.74354,-0.7218 z"
             style="fill:#bababa;fill-opacity:0.25;fill-rule:nonzero;stroke:none"
             id="path376" /></g><g
           id="g378"><path
             d="m 90.48674,37.15074 c 0.25819,0 0.50537,0.10217 0.68776,0.28453 0.18237,0.18238 0.28564,0.42958 0.28564,0.68778 0,0.25816 -0.10327,0.50537 -0.28564,0.68774 -0.18239,0.18237 -0.42957,0.28455 -0.68776,0.28455 -0.25818,0 -0.50537,-0.10218 -0.68774,-0.28455 -0.18239,-0.18237 -0.28457,-0.42958 -0.28457,-0.68774 0,-0.2582 0.10218,-0.5054 0.28457,-0.68778 0.18237,-0.18236 0.42956,-0.28453 0.68774,-0.28453 z"
             style="fill:#f5f5f5;fill-opacity:0.25;fill-rule:nonzero;stroke:none"
             id="path380" /></g><g
           id="g382"><path
             d="m 90.48674,54.4808 c 0.6548,0 1.28323,0.25927 1.74576,0.72289 0.46362,0.46254 0.72291,1.09096 0.72291,1.74576 0,0.6548 -0.25929,1.28212 -0.72291,1.74574 -0.46253,0.46254 -1.09096,0.72291 -1.74576,0.72291 -0.65479,0 -1.28212,-0.26037 -1.74574,-0.72291 -0.46253,-0.46362 -0.7229,-1.09094 -0.7229,-1.74574 0,-0.6548 0.26037,-1.28322 0.7229,-1.74576 0.46362,-0.46362 1.09095,-0.72289 1.74574,-0.72289 z"
             style="fill:#ededed;fill-opacity:0.25;fill-rule:nonzero;stroke:none"
             id="path384" /></g><g
           id="g386"><path
             d="m 90.48674,73.45552 c 0.61525,0 1.20522,0.245 1.64027,0.68007 0.43508,0.43506 0.67897,1.02504 0.67897,1.64027 0,0.61524 -0.24389,1.20522 -0.67897,1.64028 -0.43505,0.43397 -1.02502,0.67897 -1.64027,0.67897 -0.61524,0 -1.20522,-0.245 -1.64027,-0.67897 -0.43398,-0.43506 -0.67897,-1.02504 -0.67897,-1.64028 0,-0.61523 0.24499,-1.20521 0.67897,-1.64027 0.43505,-0.43507 1.02503,-0.68007 1.64027,-0.68007 z"
             style="fill:#bcbcbc;fill-opacity:0.25;fill-rule:nonzero;stroke:none"
             id="path388" /></g><g
           id="g390"><path
             d="m 90.48674,93.60912 c 0.26369,0 0.51637,0.10435 0.70204,0.29112 0.18678,0.18568 0.29114,0.43837 0.29114,0.70094 0,0.26367 -0.10436,0.51636 -0.29114,0.70204 -0.18567,0.18677 -0.43835,0.29113 -0.70204,0.29113 -0.26256,0 -0.51526,-0.10436 -0.70203,-0.29113 -0.18567,-0.18568 -0.29005,-0.43837 -0.29005,-0.70204 0,-0.26257 0.10438,-0.51526 0.29005,-0.70094 0.18677,-0.18677 0.43947,-0.29112 0.70203,-0.29112 z"
             style="fill:#3b3b3b;fill-opacity:0.25;fill-rule:nonzero;stroke:none"
             id="path392" /></g><g
           id="g394"><path
             d="m 90.48674,112.48386 c 0.2505,0 0.4911,0.0989 0.66798,0.27685 0.17688,0.17689 0.27686,0.4164 0.27686,0.66689 0,0.25049 -0.09998,0.49109 -0.27686,0.66797 -0.17688,0.17689 -0.41748,0.27685 -0.66798,0.27685 -0.25047,0 -0.48999,-0.1 -0.66687,-0.27685 -0.17798,-0.17688 -0.27687,-0.41748 -0.27687,-0.66797 0,-0.25049 0.09889,-0.49 0.27687,-0.66689 0.17688,-0.17798 0.4164,-0.27685 0.66687,-0.27685 z"
             style="fill:#c3c3c3;fill-opacity:0.25;fill-rule:nonzero;stroke:none"
             id="path396" /></g><g
           id="g398"><path
             d="m 90.48674,128.95367 c 0.87563,0 1.715,0.34717 2.33463,0.9668 0.61854,0.61855 0.96683,1.45792 0.96683,2.33354 0,0.87561 -0.34829,1.71499 -0.96683,2.33463 -0.61963,0.61854 -1.459,0.9668 -2.33463,0.9668 -0.87453,0 -1.71498,-0.34826 -2.33351,-0.9668 -0.61966,-0.61964 -0.96681,-1.45902 -0.96681,-2.33463 0,-0.87562 0.34715,-1.71499 0.96681,-2.33354 0.61853,-0.61963 1.45898,-0.9668 2.33351,-0.9668 z"
             style="fill:#4c4c4c;fill-opacity:0.25;fill-rule:nonzero;stroke:none"
             id="path400" /></g><g
           id="g402"><path
             d="m 90.48674,149.52144 c 0.4131,0 0.80971,0.16481 1.10194,0.45705 0.29226,0.29223 0.45704,0.68884 0.45704,1.10194 0,0.41309 -0.16478,0.80971 -0.45704,1.10193 -0.29223,0.29225 -0.68884,0.45704 -1.10194,0.45704 -0.41309,0 -0.80969,-0.16479 -1.10194,-0.45704 -0.29222,-0.29222 -0.45594,-0.68884 -0.45594,-1.10193 0,-0.4131 0.16372,-0.80971 0.45594,-1.10194 0.29225,-0.29224 0.68885,-0.45705 1.10194,-0.45705 z"
             style="fill:#484848;fill-opacity:0.25;fill-rule:nonzero;stroke:none"
             id="path404" /></g><g
           id="g406"><path
             d="m 90.48674,168.84444 c 0.28236,0 0.55263,0.11207 0.75148,0.31092 0.19885,0.19996 0.31091,0.46912 0.31091,0.75147 0,0.28125 -0.11206,0.55153 -0.31091,0.7504 -0.19885,0.19885 -0.46912,0.31089 -0.75148,0.31089 -0.28125,0 -0.55151,-0.11204 -0.75037,-0.31089 -0.19885,-0.19887 -0.31092,-0.46915 -0.31092,-0.7504 0,-0.28235 0.11207,-0.55151 0.31092,-0.75147 0.19886,-0.19885 0.46912,-0.31092 0.75037,-0.31092 z"
             style="fill:#c4c4c4;fill-opacity:0.25;fill-rule:nonzero;stroke:none"
             id="path408" /></g><g
           id="g410"><path
             d="m 90.48674,186.71834 c 0.53505,0 1.04703,0.21203 1.42494,0.58996 0.37795,0.37795 0.58998,0.88993 0.58998,1.42495 0,0.53395 -0.21203,1.04591 -0.58998,1.42385 -0.37791,0.37793 -0.88989,0.59107 -1.42494,0.59107 -0.53394,0 -1.047,-0.21314 -1.42384,-0.59107 -0.37793,-0.37794 -0.59107,-0.8899 -0.59107,-1.42385 0,-0.53502 0.21314,-1.047 0.59107,-1.42495 0.37684,-0.37793 0.8899,-0.58996 1.42384,-0.58996 z"
             style="fill:#afafaf;fill-opacity:0.25;fill-rule:nonzero;stroke:none"
             id="path412" /></g><g
           id="g414"><path
             d="m 90.48674,204.29448 c 0.86574,0 1.69632,0.34389 2.30937,0.95582 0.61194,0.61196 0.95583,1.44254 0.95583,2.30826 0,0.86574 -0.34389,1.69632 -0.95583,2.30936 -0.61305,0.61194 -1.44363,0.95583 -2.30937,0.95583 -0.86574,0 -1.6963,-0.34389 -2.30824,-0.95583 -0.61196,-0.61304 -0.95583,-1.44362 -0.95583,-2.30936 0,-0.86572 0.34387,-1.6963 0.95583,-2.30826 0.61194,-0.61193 1.4425,-0.95582 2.30824,-0.95582 z"
             style="fill:#454545;fill-opacity:0.25;fill-rule:nonzero;stroke:none"
             id="path416" /></g><g
           id="g418"><path
             d="m 123.09459,17.8519 c 0.38342,0 0.75148,0.15271 1.02174,0.42299 0.27137,0.27134 0.42407,0.63831 0.42407,1.02174 0,0.38342 -0.1527,0.75145 -0.42407,1.02173 -0.27026,0.27138 -0.63832,0.42299 -1.02174,0.42299 -0.38232,0 -0.75038,-0.15161 -1.02174,-0.42299 -0.27027,-0.27028 -0.42298,-0.63831 -0.42298,-1.02173 0,-0.38343 0.15271,-0.7504 0.42298,-1.02174 0.27136,-0.27028 0.63942,-0.42299 1.02174,-0.42299 z"
             style="fill:#292929;fill-opacity:0.25;fill-rule:nonzero;stroke:none"
             id="path420" /></g><g
           id="g422"><path
             d="m 123.09459,36.38608 c 0.46143,0 0.90309,0.18347 1.22829,0.50868 0.32629,0.32629 0.50868,0.76793 0.50868,1.22829 0,0.46032 -0.18239,0.90197 -0.50868,1.22827 -0.3252,0.32519 -0.76686,0.50867 -1.22829,0.50867 -0.46033,0 -0.90199,-0.18348 -1.22829,-0.50867 -0.3252,-0.3263 -0.50866,-0.76795 -0.50866,-1.22827 0,-0.46036 0.18346,-0.902 0.50866,-1.22829 0.3263,-0.32521 0.76796,-0.50868 1.22829,-0.50868 z"
             style="fill:#1a1a1a;fill-opacity:0.25;fill-rule:nonzero;stroke:none"
             id="path424" /></g><g
           id="g426"><path
             d="m 123.09459,54.7104 c 0.59437,0 1.16347,0.23621 1.58314,0.6559 0.4197,0.41968 0.6559,0.98877 0.6559,1.58315 0,0.59327 -0.2362,1.16347 -0.6559,1.58315 -0.41967,0.41967 -0.98877,0.65589 -1.58314,0.65589 -0.59328,0 -1.16237,-0.23622 -1.58205,-0.65589 -0.42077,-0.41968 -0.6559,-0.98988 -0.6559,-1.58315 0,-0.59438 0.23513,-1.16347 0.6559,-1.58315 0.41968,-0.41969 0.98877,-0.6559 1.58205,-0.6559 z"
             style="fill:#7d7d7d;fill-opacity:0.25;fill-rule:nonzero;stroke:none"
             id="path428" /></g><g
           id="g430"><path
             d="m 123.09459,74.4531 c 0.35156,0 0.68776,0.13952 0.93495,0.38781 0.24829,0.24829 0.38782,0.58449 0.38782,0.93495 0,0.35047 -0.13953,0.68666 -0.38782,0.93384 -0.24719,0.24831 -0.58339,0.38783 -0.93495,0.38783 -0.35046,0 -0.68666,-0.13952 -0.93385,-0.38783 -0.24829,-0.24718 -0.38782,-0.58337 -0.38782,-0.93384 0,-0.35046 0.13953,-0.68666 0.38782,-0.93495 0.24719,-0.24829 0.58339,-0.38781 0.93385,-0.38781 z"
             style="fill:#d5d5d5;fill-opacity:0.25;fill-rule:nonzero;stroke:none"
             id="path432" /></g><g
           id="g434"><path
             d="m 123.09459,93.27841 c 0.35156,0 0.68776,0.13953 0.93605,0.38783 0.24829,0.24718 0.38782,0.58446 0.38782,0.93494 0,0.35156 -0.13953,0.68775 -0.38782,0.93604 -0.24829,0.24828 -0.58449,0.38783 -0.93605,0.38783 -0.35046,0 -0.68774,-0.13955 -0.93605,-0.38783 -0.24719,-0.24829 -0.38672,-0.58448 -0.38672,-0.93604 0,-0.35048 0.13953,-0.68776 0.38672,-0.93494 0.24831,-0.2483 0.58559,-0.38783 0.93605,-0.38783 z"
             style="fill:#525252;fill-opacity:0.25;fill-rule:nonzero;stroke:none"
             id="path436" /></g><g
           id="g438"><path
             d="m 123.09459,110.70296 c 0.72291,0 1.41615,0.28674 1.92701,0.7987 0.51089,0.51087 0.79874,1.20414 0.79874,1.92594 0,0.72291 -0.28785,1.41615 -0.79874,1.92703 -0.51086,0.51087 -1.2041,0.79871 -1.92701,0.79871 -0.72182,0 -1.41506,-0.28784 -1.92592,-0.79871 -0.51088,-0.51088 -0.79874,-1.20412 -0.79874,-1.92703 0,-0.7218 0.28786,-1.41507 0.79874,-1.92594 0.51086,-0.51196 1.2041,-0.7987 1.92592,-0.7987 z"
             style="fill:#989898;fill-opacity:0.25;fill-rule:nonzero;stroke:none"
             id="path440" /></g><g
           id="g442"><path
             d="m 123.09459,130.74887 c 0.3999,0 0.78224,0.1582 1.06457,0.44055 0.28237,0.28237 0.44059,0.66579 0.44059,1.06459 0,0.39881 -0.15822,0.78223 -0.44059,1.06458 -0.28233,0.28236 -0.66467,0.44057 -1.06457,0.44057 -0.3988,0 -0.78114,-0.15821 -1.06349,-0.44057 -0.28235,-0.28235 -0.44165,-0.66577 -0.44165,-1.06458 0,-0.3988 0.1593,-0.78222 0.44165,-1.06459 0.28235,-0.28235 0.66469,-0.44055 1.06349,-0.44055 z"
             style="fill:#2e2e2e;fill-opacity:0.25;fill-rule:nonzero;stroke:none"
             id="path444" /></g><g
           id="g446"><path
             d="m 123.09459,148.27118 c 0.74597,0 1.46011,0.29555 1.98744,0.82289 0.52627,0.52626 0.82291,1.24147 0.82291,1.98636 0,0.74489 -0.29664,1.4601 -0.82291,1.98636 -0.52733,0.52733 -1.24147,0.82287 -1.98744,0.82287 -0.74487,0 -1.459,-0.29554 -1.98634,-0.82287 -0.52626,-0.52626 -0.82291,-1.24147 -0.82291,-1.98636 0,-0.74489 0.29665,-1.4601 0.82291,-1.98636 0.52734,-0.52734 1.24147,-0.82289 1.98634,-0.82289 z"
             style="fill:#525252;fill-opacity:0.25;fill-rule:nonzero;stroke:none"
             id="path448" /></g><g
           id="g450"><path
             d="m 123.09459,168.50386 c 0.37244,0 0.72951,0.14724 0.99318,0.41089 0.26257,0.26259 0.41089,0.61966 0.41089,0.99208 0,0.37135 -0.14832,0.72841 -0.41089,0.99208 -0.26367,0.26259 -0.62074,0.4109 -0.99318,0.4109 -0.37134,0 -0.72839,-0.14831 -0.99208,-0.4109 -0.26257,-0.26367 -0.41089,-0.62073 -0.41089,-0.99208 0,-0.37242 0.14832,-0.72949 0.41089,-0.99208 0.26369,-0.26365 0.62074,-0.41089 0.99208,-0.41089 z"
             style="fill:#b2b2b2;fill-opacity:0.25;fill-rule:nonzero;stroke:none"
             id="path452" /></g><g
           id="g454"><path
             d="m 123.09459,187.03145 c 0.45155,0 0.88441,0.17908 1.20301,0.49878 0.31971,0.31862 0.49879,0.75148 0.49879,1.20302 0,0.45045 -0.17908,0.88331 -0.49879,1.20303 -0.3186,0.3186 -0.75146,0.49768 -1.20301,0.49768 -0.45046,0 -0.8833,-0.17908 -1.20302,-0.49768 -0.3186,-0.31972 -0.49768,-0.75258 -0.49768,-1.20303 0,-0.45154 0.17908,-0.8844 0.49768,-1.20302 0.31972,-0.3197 0.75256,-0.49878 1.20302,-0.49878 z"
             style="fill:#808080;fill-opacity:0.25;fill-rule:nonzero;stroke:none"
             id="path456" /></g><g
           id="g458"><path
             d="m 123.09459,206.53134 c 0.27246,0 0.53393,0.10876 0.72731,0.30103 0.19226,0.19334 0.30102,0.45373 0.30102,0.72619 0,0.27246 -0.10876,0.53395 -0.30102,0.72731 -0.19338,0.19226 -0.45485,0.30103 -0.72731,0.30103 -0.27246,0 -0.53284,-0.10877 -0.72621,-0.30103 -0.19226,-0.19336 -0.30103,-0.45485 -0.30103,-0.72731 0,-0.27246 0.10877,-0.53285 0.30103,-0.72619 0.19337,-0.19227 0.45375,-0.30103 0.72621,-0.30103 z"
             style="fill:#dedede;fill-opacity:0.25;fill-rule:nonzero;stroke:none"
             id="path460" /></g><g
           id="g462"><path
             d="m 155.70354,18.2573 c 0.27574,0 0.53943,0.10876 0.73498,0.30433 0.19556,0.19446 0.30432,0.45923 0.30432,0.735 0,0.27576 -0.10876,0.54053 -0.30432,0.73608 -0.19555,0.19446 -0.45924,0.30433 -0.73498,0.30433 -0.27686,0 -0.54054,-0.10987 -0.7361,-0.30433 -0.19446,-0.19555 -0.30432,-0.46032 -0.30432,-0.73608 0,-0.27577 0.10986,-0.54054 0.30432,-0.735 0.19556,-0.19557 0.45924,-0.30433 0.7361,-0.30433 z"
             style="fill:#d4d4d4;fill-opacity:0.25;fill-rule:nonzero;stroke:none"
             id="path464" /></g><g
           id="g466"><path
             d="m 155.70354,37.45177 c 0.17796,0 0.34826,0.07141 0.47351,0.19665 0.12634,0.12635 0.19665,0.29663 0.19665,0.47463 0,0.17796 -0.0703,0.34825 -0.19665,0.47459 -0.12525,0.12526 -0.29555,0.19666 -0.47351,0.19666 -0.178,0 -0.34938,-0.0714 -0.47463,-0.19666 -0.12634,-0.12634 -0.19665,-0.29663 -0.19665,-0.47459 0,-0.178 0.0703,-0.34828 0.19665,-0.47463 0.12525,-0.12524 0.29663,-0.19665 0.47463,-0.19665 z"
             style="fill:#4c4c4c;fill-opacity:0.25;fill-rule:nonzero;stroke:none"
             id="path468" /></g><g
           id="g470"><path
             d="m 155.70354,56.2606 c 0.18237,0 0.35704,0.07251 0.48669,0.20104 0.12964,0.12966 0.20215,0.30543 0.20215,0.48781 0,0.18237 -0.0725,0.35815 -0.20215,0.48671 -0.12965,0.12964 -0.30432,0.20214 -0.48669,0.20214 -0.18347,0 -0.35816,-0.0725 -0.48781,-0.20214 -0.12854,-0.12856 -0.20105,-0.30434 -0.20105,-0.48671 0,-0.18238 0.0725,-0.35815 0.20105,-0.48781 0.12965,-0.12853 0.30434,-0.20104 0.48781,-0.20104 z"
             style="fill:#070707;fill-opacity:0.25;fill-rule:nonzero;stroke:none"
             id="path472" /></g><g
           id="g474"><path
             d="m 155.70354,74.6937 c 0.28674,0 0.5614,0.11425 0.76466,0.3175 0.20213,0.20216 0.31639,0.4779 0.31639,0.76466 0,0.28674 -0.11426,0.56142 -0.31639,0.76467 -0.20326,0.20215 -0.47792,0.3164 -0.76466,0.3164 -0.28786,0 -0.56252,-0.11425 -0.76577,-0.3164 -0.20214,-0.20325 -0.3164,-0.47793 -0.3164,-0.76467 0,-0.28676 0.11426,-0.5625 0.3164,-0.76466 0.20325,-0.20325 0.47791,-0.3175 0.76577,-0.3175 z"
             style="fill:#a4a4a4;fill-opacity:0.25;fill-rule:nonzero;stroke:none"
             id="path476" /></g><g
           id="g478"><path
             d="m 155.70354,93.24214 c 0.36035,0 0.70532,0.14284 0.9613,0.39772 0.2549,0.25598 0.39772,0.60097 0.39772,0.96132 0,0.36145 -0.14282,0.70644 -0.39772,0.96242 -0.25598,0.25488 -0.60095,0.3977 -0.9613,0.3977 -0.36147,0 -0.70644,-0.14282 -0.96242,-0.3977 -0.25488,-0.25598 -0.39772,-0.60097 -0.39772,-0.96242 0,-0.36035 0.14284,-0.70534 0.39772,-0.96132 0.25598,-0.25488 0.60095,-0.39772 0.96242,-0.39772 z"
             style="fill:#dedede;fill-opacity:0.25;fill-rule:nonzero;stroke:none"
             id="path480" /></g><g
           id="g482"><path
             d="m 155.70354,112.90683 c 0.13731,0 0.27026,0.055 0.36804,0.15273 0.0978,0.0978 0.15271,0.22961 0.15271,0.36804 0,0.13842 -0.0549,0.27136 -0.15271,0.36914 -0.0978,0.0978 -0.23073,0.15271 -0.36804,0.15271 -0.13843,0 -0.27138,-0.0549 -0.36916,-0.15271 -0.0978,-0.0978 -0.15271,-0.23072 -0.15271,-0.36914 0,-0.13843 0.0549,-0.27027 0.15271,-0.36804 0.0978,-0.0978 0.23073,-0.15273 0.36916,-0.15273 z"
             style="fill:#d9d9d9;fill-opacity:0.25;fill-rule:nonzero;stroke:none"
             id="path484" /></g><g
           id="g486"><path
             d="m 155.70354,130.70273 c 0.41089,0 0.80531,0.16369 1.09643,0.45373 0.29116,0.29114 0.45485,0.68666 0.45485,1.09755 0,0.41199 -0.16369,0.8064 -0.45485,1.09755 -0.29112,0.29114 -0.68554,0.45484 -1.09643,0.45484 -0.41201,0 -0.80641,-0.1637 -1.09755,-0.45484 -0.29116,-0.29115 -0.45485,-0.68556 -0.45485,-1.09755 0,-0.41089 0.16369,-0.80641 0.45485,-1.09755 0.29114,-0.29004 0.68554,-0.45373 1.09755,-0.45373 z"
             style="fill:#030303;fill-opacity:0.25;fill-rule:nonzero;stroke:none"
             id="path488" /></g><g
           id="g490"><path
             d="m 155.70354,148.38104 c 0.71521,0 1.40187,0.28456 1.90834,0.78993 0.50647,0.50649 0.79103,1.19315 0.79103,1.90946 0,0.71632 -0.28456,1.40297 -0.79103,1.90944 -0.50647,0.50538 -1.19313,0.78993 -1.90834,0.78993 -0.71633,0 -1.40299,-0.28455 -1.90946,-0.78993 -0.50647,-0.50647 -0.79103,-1.19312 -0.79103,-1.90944 0,-0.71631 0.28456,-1.40297 0.79103,-1.90946 0.50647,-0.50537 1.19313,-0.78993 1.90946,-0.78993 z"
             style="fill:#262626;fill-opacity:0.25;fill-rule:nonzero;stroke:none"
             id="path492" /></g><g
           id="g494"><path
             d="m 155.70354,166.84491 c 0.81189,0 1.58973,0.323 2.16433,0.8965 0.57349,0.57459 0.89649,1.35353 0.89649,2.16542 0,0.8119 -0.323,1.59085 -0.89649,2.16434 -0.5746,0.5746 -1.35244,0.8965 -2.16433,0.8965 -0.81191,0 -1.59085,-0.3219 -2.16544,-0.8965 -0.57349,-0.57349 -0.8965,-1.35244 -0.8965,-2.16434 0,-0.81189 0.32301,-1.59083 0.8965,-2.16542 0.57459,-0.5735 1.35353,-0.8965 2.16544,-0.8965 z"
             style="fill:#2e2e2e;fill-opacity:0.25;fill-rule:nonzero;stroke:none"
             id="path496" /></g><g
           id="g498"><path
             d="m 155.70354,186.96883 c 0.46692,0 0.91626,0.18567 1.24695,0.51635 0.33068,0.33071 0.51637,0.78005 0.51637,1.24807 0,0.46693 -0.18569,0.91627 -0.51637,1.24696 -0.33069,0.3307 -0.78003,0.51637 -1.24695,0.51637 -0.46804,0 -0.91738,-0.18567 -1.24807,-0.51637 -0.33068,-0.33069 -0.51637,-0.78003 -0.51637,-1.24696 0,-0.46802 0.18569,-0.91736 0.51637,-1.24807 0.33069,-0.33068 0.78003,-0.51635 1.24807,-0.51635 z"
             style="fill:#484848;fill-opacity:0.25;fill-rule:nonzero;stroke:none"
             id="path500" /></g><g
           id="g502"><path
             d="m 155.70354,204.50873 c 0.80859,0 1.58424,0.3219 2.15664,0.89319 0.57129,0.5724 0.89319,1.34805 0.89319,2.15664 0,0.80971 -0.3219,1.58536 -0.89319,2.15775 -0.5724,0.5713 -1.34805,0.8932 -2.15664,0.8932 -0.80971,0 -1.58536,-0.3219 -2.15776,-0.8932 -0.57129,-0.57239 -0.89319,-1.34804 -0.89319,-2.15775 0,-0.80859 0.3219,-1.58424 0.89319,-2.15664 0.5724,-0.57129 1.34805,-0.89319 2.15776,-0.89319 z"
             style="fill:#515151;fill-opacity:0.25;fill-rule:nonzero;stroke:none"
             id="path504" /></g><g
           id="g506"><path
             d="m 188.31137,18.14963 c 0.30432,0 0.59548,0.12087 0.81081,0.33619 0.21533,0.21532 0.33618,0.50648 0.33618,0.81081 0,0.30432 -0.12085,0.59654 -0.33618,0.81189 -0.21533,0.21533 -0.50649,0.33618 -0.81081,0.33618 -0.30432,0 -0.59656,-0.12085 -0.81189,-0.33618 -0.21535,-0.21535 -0.3362,-0.50757 -0.3362,-0.81189 0,-0.30433 0.12085,-0.59549 0.3362,-0.81081 0.21533,-0.21532 0.50757,-0.33619 0.81189,-0.33619 z"
             style="fill:#141414;fill-opacity:0.25;fill-rule:nonzero;stroke:none"
             id="path508" /></g><g
           id="g510"><path
             d="m 188.31137,36.95958 c 0.30872,0 0.60426,0.12195 0.82289,0.34056 0.21753,0.21864 0.34058,0.51418 0.34058,0.82291 0,0.3087 -0.12305,0.60425 -0.34058,0.82287 -0.21863,0.21863 -0.51417,0.34058 -0.82289,0.34058 -0.30873,0 -0.60535,-0.12195 -0.82289,-0.34058 -0.21863,-0.21862 -0.34168,-0.51417 -0.34168,-0.82287 0,-0.30873 0.12305,-0.60427 0.34168,-0.82291 0.21754,-0.21861 0.51416,-0.34056 0.82289,-0.34056 z"
             style="fill:#5d5d5d;fill-opacity:0.25;fill-rule:nonzero;stroke:none"
             id="path512" /></g><g
           id="g514"><path
             d="m 188.31137,55.75412 c 0.31641,0 0.62074,0.12636 0.84486,0.35048 0.22413,0.22412 0.34937,0.52734 0.34937,0.84485 0,0.3164 -0.12524,0.62074 -0.34937,0.84486 -0.22412,0.22412 -0.52845,0.35047 -0.84486,0.35047 -0.3175,0 -0.62184,-0.12635 -0.84485,-0.35047 -0.22412,-0.22412 -0.35046,-0.52846 -0.35046,-0.84486 0,-0.31751 0.12634,-0.62073 0.35046,-0.84485 0.22301,-0.22412 0.52735,-0.35048 0.84485,-0.35048 z"
             style="fill:#e7e7e7;fill-opacity:0.25;fill-rule:nonzero;stroke:none"
             id="path516" /></g><g
           id="g518"><path
             d="m 188.31137,75.51328 c 0.0692,0 0.13623,0.02748 0.18459,0.07692 0.0494,0.04942 0.0769,0.11535 0.0769,0.18566 0,0.06922 -0.0275,0.13624 -0.0769,0.18457 -0.0484,0.04944 -0.11538,0.07691 -0.18459,0.07691 -0.0703,0 -0.13623,-0.02747 -0.18567,-0.07691 -0.0494,-0.04833 -0.0769,-0.11535 -0.0769,-0.18457 0,-0.07031 0.0275,-0.13624 0.0769,-0.18566 0.0494,-0.04944 0.11536,-0.07692 0.18567,-0.07692 z"
             style="fill:#1f1f1f;fill-opacity:0.25;fill-rule:nonzero;stroke:none"
             id="path520" /></g><g
           id="g522"><path
             d="m 188.31137,92.25996 c 0.62074,0 1.2162,0.24611 1.65566,0.68557 0.43947,0.43945 0.68556,1.03492 0.68556,1.65565 0,0.62182 -0.24609,1.2173 -0.68556,1.65677 -0.43946,0.43945 -1.03492,0.68555 -1.65566,0.68555 -0.62184,0 -1.2173,-0.2461 -1.65675,-0.68555 -0.43947,-0.43947 -0.68556,-1.03495 -0.68556,-1.65677 0,-0.62073 0.24609,-1.2162 0.68556,-1.65565 0.43945,-0.43946 1.03491,-0.68557 1.65675,-0.68557 z"
             style="fill:#c8c8c8;fill-opacity:0.25;fill-rule:nonzero;stroke:none"
             id="path524" /></g><g
           id="g526"><path
             d="m 188.31137,110.86665 c 0.67897,0 1.33046,0.26917 1.81056,0.75037 0.48123,0.48012 0.7504,1.13161 0.7504,1.81058 0,0.68005 -0.26917,1.33156 -0.7504,1.81166 -0.4801,0.4801 -1.13159,0.75038 -1.81056,0.75038 -0.68007,0 -1.33156,-0.27028 -1.81166,-0.75038 -0.48012,-0.4801 -0.75038,-1.13161 -0.75038,-1.81166 0,-0.67897 0.27026,-1.33046 0.75038,-1.81058 0.4801,-0.4812 1.13159,-0.75037 1.81166,-0.75037 z"
             style="fill:#0e0e0e;fill-opacity:0.25;fill-rule:nonzero;stroke:none"
             id="path528" /></g><g
           id="g530"><path
             d="m 188.31137,131.38498 c 0.22963,0 0.45044,0.0923 0.61413,0.25488 0.16262,0.16261 0.2538,0.38342 0.2538,0.61415 0,0.23072 -0.0912,0.45154 -0.2538,0.61415 -0.16369,0.1626 -0.3845,0.25487 -0.61413,0.25487 -0.23071,0 -0.45155,-0.0923 -0.61415,-0.25487 -0.1637,-0.16261 -0.25487,-0.38343 -0.25487,-0.61415 0,-0.23073 0.0912,-0.45154 0.25487,-0.61415 0.1626,-0.1626 0.38344,-0.25488 0.61415,-0.25488 z"
             style="fill:#101010;fill-opacity:0.25;fill-rule:nonzero;stroke:none"
             id="path532" /></g><g
           id="g534"><path
             d="m 188.31137,149.7126 c 0.36255,0 0.70973,0.14394 0.96681,0.40102 0.25598,0.25598 0.401,0.60424 0.401,0.96681 0,0.36255 -0.14502,0.71081 -0.401,0.9668 -0.25708,0.25707 -0.60426,0.40101 -0.96681,0.40101 -0.36365,0 -0.71081,-0.14394 -0.96791,-0.40101 -0.25596,-0.25599 -0.3999,-0.60425 -0.3999,-0.9668 0,-0.36257 0.14394,-0.71083 0.3999,-0.96681 0.2571,-0.25708 0.60426,-0.40102 0.96791,-0.40102 z"
             style="fill:#6d6d6d;fill-opacity:0.25;fill-rule:nonzero;stroke:none"
             id="path536" /></g><g
           id="g538"><path
             d="m 188.31137,166.6911 c 0.85256,0 1.66995,0.33948 2.2731,0.94264 0.60315,0.60207 0.94155,1.42055 0.94155,2.27309 0,0.85257 -0.3384,1.66995 -0.94155,2.27312 -0.60315,0.60315 -1.42054,0.94153 -2.2731,0.94153 -0.85254,0 -1.67103,-0.33838 -2.2742,-0.94153 -0.60207,-0.60317 -0.94154,-1.42055 -0.94154,-2.27312 0,-0.85254 0.33947,-1.67102 0.94154,-2.27309 0.60317,-0.60316 1.42166,-0.94264 2.2742,-0.94264 z"
             style="fill:#f7f7f7;fill-opacity:0.25;fill-rule:nonzero;stroke:none"
             id="path540" /></g><g
           id="g542"><path
             d="m 188.31137,185.94598 c 0.7383,0 1.44801,0.29334 1.97098,0.8163 0.52185,0.52295 0.81518,1.23159 0.81518,1.97097 0,0.73829 -0.29333,1.44802 -0.81518,1.96988 -0.52297,0.52296 -1.23268,0.81629 -1.97098,0.81629 -0.73938,0 -1.44803,-0.29333 -1.97096,-0.81629 -0.52297,-0.52186 -0.81631,-1.23159 -0.81631,-1.96988 0,-0.73938 0.29334,-1.44802 0.81631,-1.97097 0.52293,-0.52296 1.23158,-0.8163 1.97096,-0.8163 z"
             style="fill:#373737;fill-opacity:0.25;fill-rule:nonzero;stroke:none"
             id="path544" /></g><g
           id="g546"><path
             d="m 188.31137,205.25252 c 0.61084,0 1.19754,0.24278 1.6304,0.67566 0.43285,0.43286 0.67566,1.01954 0.67566,1.63038 0,0.61196 -0.24281,1.19863 -0.67566,1.63149 -0.43286,0.43179 -1.01956,0.67567 -1.6304,0.67567 -0.61194,0 -1.19862,-0.24388 -1.6315,-0.67567 -0.43176,-0.43286 -0.67566,-1.01953 -0.67566,-1.63149 0,-0.61084 0.2439,-1.19752 0.67566,-1.63038 0.43288,-0.43288 1.01956,-0.67566 1.6315,-0.67566 z"
             style="fill:#f2f2f2;fill-opacity:0.25;fill-rule:nonzero;stroke:none"
             id="path548" /></g></g></g></g></svg>
