<?xml version="1.0" encoding="UTF-8" standalone="no"?>
<svg
   xmlns:dc="http://purl.org/dc/elements/1.1/"
   xmlns:cc="http://creativecommons.org/ns#"
   xmlns:rdf="http://www.w3.org/1999/02/22-rdf-syntax-ns#"
   xmlns:svg="http://www.w3.org/2000/svg"
   xmlns="http://www.w3.org/2000/svg"
   viewBox="0 0 61.428005 61.428005"
   height="61.428005"
   width="61.428005"
   xml:space="preserve"
   id="svg2"
   version="1.1"><metadata
     id="metadata8"><rdf:RDF><cc:Work
         rdf:about=""><dc:format>image/svg+xml</dc:format><dc:type
           rdf:resource="http://purl.org/dc/dcmitype/StillImage" /><dc:title></dc:title></cc:Work></rdf:RDF></metadata><defs
     id="defs6"><clipPath
       id="clipPath20"
       clipPathUnits="userSpaceOnUse"><path
         id="path18"
         d="M 0,0 H 46 V 46 H 0 Z" /></clipPath><clipPath
       id="clipPath26"
       clipPathUnits="userSpaceOnUse"><path
         id="path24"
         d="m 0.5,45.57 h 33.117 c 6.602,0 11.953,-5.351 11.953,-11.953 V 12.457 C 45.57,5.852 40.219,0.5 33.617,0.5 H 12.453 C 5.852,0.5 0.5,5.852 0.5,12.457 Z" /></clipPath><clipPath
       id="clipPath36"
       clipPathUnits="userSpaceOnUse"><path
         id="path34"
         d="M 0,0 H 47 V 47 H 0 Z" /></clipPath><clipPath
       id="clipPath60"
       clipPathUnits="userSpaceOnUse"><path
         id="path58"
         d="M 0,0 H 47 V 47 H 0 Z" /></clipPath><clipPath
       id="clipPath92"
       clipPathUnits="userSpaceOnUse"><path
         id="path90"
         d="m -16299.965,16346.035 v -32646 h 32646 v 32646 z M 30.121,23.035 c 0,-3.914 -3.172,-7.086 -7.086,-7.086 -3.914,0 -7.086,3.172 -7.086,7.086 0,3.914 3.172,7.086 7.086,7.086 3.914,0 7.086,-3.172 7.086,-7.086 z" /></clipPath><clipPath
       id="clipPath102"
       clipPathUnits="userSpaceOnUse"><path
         id="path100"
         d="M 0,0 H 47 V 47 H 0 Z" /></clipPath></defs><g
     transform="matrix(1.3333333,0,0,1.3333333,0,1.5357001e-6)"
     id="g10"><g
       id="g12" /><g
       id="g14"><g
         clip-path="url(#clipPath20)"
         id="g16"><g
           clip-path="url(#clipPath26)"
           id="g22"><g
             id="g28"><g
               id="g30"><g
                 clip-path="url(#clipPath36)"
                 id="g32"><g
                   id="g38"><path
                     id="path40"
                     style="fill:#440154;fill-opacity:1;fill-rule:nonzero;stroke:none"
                     d="M 0.359,45.715 H 14.625 L 0.359,31.445 Z" /><path
                     id="path42"
                     style="fill:#8c0f59;fill-opacity:1;fill-rule:nonzero;stroke:none"
                     d="M 16.328,45.715 H 29.742 L 0.359,16.328 v 13.418 z" /><path
                     id="path44"
                     style="fill:#c53f54;fill-opacity:1;fill-rule:nonzero;stroke:none"
                     d="M 31.445,45.715 H 44.863 L 0.359,1.207 v 13.418 z" /><path
                     id="path46"
                     style="fill:#eb794b;fill-opacity:1;fill-rule:nonzero;stroke:none"
                     d="M 14.625,0.359 H 1.207 L 45.711,44.863 V 31.445 Z" /><path
                     id="path48"
                     style="fill:#fcb74e;fill-opacity:1;fill-rule:nonzero;stroke:none"
                     d="M 29.742,0.359 H 16.328 L 45.711,29.746 V 16.328 Z" /><path
                     id="path50"
                     style="fill:#f9f871;fill-opacity:1;fill-rule:nonzero;stroke:none"
                     d="M 45.711,0.359 H 31.445 l 14.266,14.266 z" /><g
                     id="g52"><g
                       id="g54"><g
                         clip-path="url(#clipPath60)"
                         id="g56"><g
                           id="g62"><g
                             transform="scale(1,-1)"
                             id="g64"><path
                               id="path66"
                               style="fill:none;stroke:#ffffff;stroke-width:5.97766018;stroke-linecap:butt;stroke-linejoin:miter;stroke-miterlimit:10;stroke-dasharray:none;stroke-opacity:1"
                               d="m 21.031,-25.039 -7.699,-7.699" /></g><g
                             transform="matrix(-1,1,1,1,0,0)"
                             id="g68"><path
                               id="path70"
                               style="fill:none;stroke:#ffffff;stroke-width:4.22680283;stroke-linecap:round;stroke-linejoin:miter;stroke-miterlimit:10;stroke-dasharray:none;stroke-opacity:1"
                               d="m 9.703,23.035 h 2.113" /></g><g
                             transform="scale(1,-1)"
                             id="g72"><path
                               id="path74"
                               style="fill:none;stroke:#ffffff;stroke-width:5.97766018;stroke-linecap:butt;stroke-linejoin:miter;stroke-miterlimit:10;stroke-dasharray:none;stroke-opacity:1"
                               d="m 25.039,-21.031 7.395,7.394" /></g><g
                             transform="matrix(1,-1,-1,-1,0,0)"
                             id="g76"><path
                               id="path78"
                               style="fill:#ffffff;fill-opacity:1;fill-rule:nonzero;stroke:#ffffff;stroke-width:1.20262897;stroke-linecap:butt;stroke-linejoin:round;stroke-miterlimit:10;stroke-dasharray:none;stroke-opacity:1"
                               d="m 13.33,-23.037 c -0.482,0.197 -2.605,1.308 -3.932,2.521 v -5.039 c 1.329,1.211 3.45,2.325 3.932,2.518 z" /></g><path
                             id="path80"
                             style="fill:#ffffff;fill-opacity:1;fill-rule:nonzero;stroke:none"
                             d="m 30.121,23.035 c 0,-3.914 -3.172,-7.086 -7.086,-7.086 -3.914,0 -7.086,3.172 -7.086,7.086 0,3.914 3.172,7.086 7.086,7.086 3.914,0 7.086,-3.172 7.086,-7.086 z" /><path
                             id="path82"
                             style="fill:#ffffff;fill-opacity:1;fill-rule:nonzero;stroke:none"
                             d="m 23.035,10.277 c 1.176,0 2.125,-0.949 2.125,-2.125 0,-1.172 -0.949,-2.125 -2.125,-2.125 -9.394,0 -17.008,7.614 -17.008,17.008 0,1.176 0.953,2.125 2.125,2.125 1.176,0 2.129,-0.949 2.129,-2.125 0,-7.043 5.711,-12.754 12.754,-12.754 z" /><path
                             id="path84"
                             style="fill:#ffffff;fill-opacity:1;fill-rule:nonzero;stroke:none"
                             d="m 23.035,35.789 c -1.172,0 -2.125,0.953 -2.125,2.129 0,1.172 0.953,2.125 2.125,2.125 9.395,0 17.008,-7.613 17.008,-17.008 0,-1.176 -0.949,-2.125 -2.125,-2.125 -1.172,0 -2.125,0.949 -2.125,2.125 0,7.043 -5.711,12.754 -12.758,12.754 z" /></g></g></g></g></g></g></g></g></g></g></g><g
       id="g86"><g
         clip-path="url(#clipPath92)"
         id="g88"><g
           id="g94"><g
             id="g96"><g
               clip-path="url(#clipPath102)"
               id="g98"><g
                 id="g104"><path
                   id="path106"
                   style="fill:#eb794b;fill-opacity:1;fill-rule:nonzero;stroke:none"
                   d="m 23.035,23.035 7.992,-2.906 c -0.859,-2.363 -2.722,-4.223 -5.082,-5.082 z" /><path
                   id="path108"
                   style="fill:#c53f54;fill-opacity:1;fill-rule:nonzero;stroke:none"
                   d="m 23.035,23.035 -7.992,2.91 c 0.859,2.36 2.723,4.223 5.082,5.082 z" /></g></g></g></g></g></g></g></svg>